<?xml version="1.0" encoding="utf-8"?>
<!-- Generator: Adobe Illustrator 21.1.0, SVG Export Plug-In . SVG Version: 6.00 Build 0)  -->
<svg version="1.1" id="Layer_1" xmlns="http://www.w3.org/2000/svg" xmlns:xlink="http://www.w3.org/1999/xlink" x="0px" y="0px"
	 viewBox="0 0 407 104.5" style="enable-background:new 0 0 407 104.5;" xml:space="preserve">
<style type="text/css">
	.st0{fill:#26D07C;}
</style>
<g>
	<g>
		<polygon points="82.4,59.7 11.9,59.7 19.8,44.8 74.6,44.8 		"/>
		<path class="st0" d="M101.9,89.6l29.5-56.1c1.2-2.3,3.6-3.7,6.1-3.7h0c5.2,0,8.6,5.5,6.1,10.2l-33.9,64.5H94.1L47.1,14.9
			L15.7,74.7H0L39.2,0h15.7L101.9,89.6z"/>
	</g>
	<g>
		<path d="M396.1,49l-7.6-1.8c-3.1-0.8-4.7-2.3-4.7-4.7c0-3.1,2.9-5.1,6.8-5.1c4.3,0,6.8,2.3,7.7,5.2h8.6
			c-1.4-7.3-6.9-12.6-16.4-12.6c-8.7,0-15.2,5.5-15.2,13.4c0,7.1,4.6,10.5,10.6,11.9l7.4,1.8c3.6,0.8,5.1,2.3,5.1,4.9
			c0,3.5-2.8,5.4-7,5.4c-4.1,0-7.1-1.8-8.3-5.6h-8.9c1.4,8.3,8,13.1,17.2,13.1c8.8,0,15.4-5.1,15.4-13.5
			C407,54.6,402.8,50.6,396.1,49z"/>
		<path d="M192.2,29.9l-17.6,44.8h9.4l3.9-9.9h18.3l3.9,9.9h9.4l-17.6-44.8H192.2z M191.3,56l5.7-14.5l5.7,14.5H191.3z"/>
		<polygon points="231.6,38.6 253.1,38.6 231.6,65.9 231.6,74.7 264.2,74.7 264.2,65.9 242.7,65.9 264.2,38.6 264.2,29.9 
			231.6,29.9 		"/>
		<polygon points="280.5,32.7 280.5,38.6 280.5,47.9 280.5,56.7 280.5,65.9 280.5,69.4 280.5,74.7 313,74.7 313,65.9 289.3,65.9 
			289.3,56.7 309,56.7 309,47.9 289.3,47.9 289.3,38.6 313,38.6 313,29.9 280.5,29.9 		"/>
		<polygon points="325.3,29.9 325.3,38.6 339.3,38.6 339.3,74.7 348,74.7 348,38.6 362,38.6 362,29.9 		"/>
	</g>
</g>
</svg>
