<svg class="h-6 hidden sm:inline-block" version="1.1" viewBox="0 0 45.494 7.9269" xmlns="http://www.w3.org/2000/svg"><g fill="currentColor" transform="translate(2.7538 -24.95)" aria-label="D-WARE"><path transform="scale(.26458)" d="m5.5918 96.299v4.7207h2.041c2.9333 0 5.1988 0.82519 6.7988 2.4785 1.6 1.6267 2.4004 3.8941 2.4004 6.8008 0 2.9066-0.8004 5.1598-2.4004 6.7598-1.6 1.6-3.8655 2.4004-6.7988 2.4004h-2.041v4.7598h2.2402c2.9333 0 5.5074-0.57404 7.7207-1.7207 2.24-1.1467 3.9602-2.7598 5.1602-4.8398 1.2267-2.1067 1.8398-4.5594 1.8398-7.3594s-0.61318-5.2527-1.8398-7.3594c-1.2-2.1333-2.9202-3.7733-5.1602-4.9199-2.2133-1.1467-4.7874-1.7207-7.7207-1.7207z"></path><path d="m11.585 28.464v1.2488h-4.4873v-1.2488z"></path><path d="m23.131 25.479-2.0637 7.3871h-1.7462l-1.3864-5.2599-1.4499 5.2599-1.7357 0.01058-1.9897-7.3977h1.5875l1.3017 5.7361 1.5028-5.7361h1.651l1.4182 5.7044 1.3123-5.7044z"></path><path d="m28.618 31.459h-2.9422l-0.48683 1.4076h-1.5557l2.6564-7.3977h1.7251l2.6564 7.3977h-1.5663zm-0.40217-1.1853-1.0689-3.0903-1.0689 3.0903z"></path><path d="m35.484 32.866-1.6298-2.8787h-0.6985v2.8787h-1.4817v-7.3871h2.7728q0.85725 0 1.4605 0.30692 0.60325 0.29633 0.89958 0.81492 0.30692 0.508 0.30692 1.143 0 0.73025-0.42333 1.3229-0.42333 0.58208-1.2594 0.80433l1.7674 2.9951zm-2.3283-3.9899h1.2382q0.60325 0 0.89958-0.28575 0.29633-0.29633 0.29633-0.81491 0-0.508-0.29633-0.78316-0.29633-0.28575-0.89958-0.28575h-1.2382z"></path><path d="m39.936 26.675v1.8521h2.4871v1.1747h-2.4871v1.9579h2.8046v1.2065h-4.2862v-7.3977h4.2862v1.2065z"></path></g><g class="fill-dware-primary" transform="translate(2.7203 -24.924)" fill="#4782ef"><path d="m-0.122 25.717h0.62429c0.26681 0 0.48161 0.2148 0.48161 0.48161v0.62429c0 0.26681-0.2148 0.48161-0.48161 0.48161h-0.62429c-0.26681 0-0.48161-0.2148-0.48161-0.48161v-0.62429c0-0.26681 0.2148-0.48161 0.48161-0.48161z"></path><path d="m-1.4449 27.834h0.62429c0.26681 0 0.48161 0.2148 0.48161 0.48161v0.62429c0 0.26681-0.2148 0.48161-0.48161 0.48161h-0.62429c-0.26681 0-0.48161-0.2148-0.48161-0.48161v-0.62429c0-0.26681 0.2148-0.48161 0.48161-0.48161z"></path><path d="m0.67175 28.628h0.62429c0.26681 0 0.48161 0.2148 0.48161 0.48161v0.62429c0 0.26681-0.2148 0.48161-0.48161 0.48161h-0.62429c-0.26681 0-0.48161-0.2148-0.48161-0.48161v-0.62429c0-0.26681 0.2148-0.48161 0.48161-0.48161z"></path><path d="m-0.65116 30.744h0.62429c0.26681 0 0.48161 0.2148 0.48161 0.48161v0.62429c0 0.26681-0.2148 0.48161-0.48161 0.48161h-0.62429c-0.26681 0-0.48161-0.2148-0.48161-0.48161v-0.62429c0-0.26681 0.2148-0.48161 0.48161-0.48161z"></path><path d="m-2.2387 24.924h0.62429c0.26681 0 0.48161 0.2148 0.48161 0.48161v0.62429c0 0.26681-0.2148 0.48161-0.48161 0.48161h-0.62429c-0.26681 0-0.48161-0.2148-0.48161-0.48161v-0.62429c0-0.26681 0.2148-0.48161 0.48161-0.48161z"></path></g></svg>
