<?xml version="1.0" encoding="UTF-8"?> <svg xmlns="http://www.w3.org/2000/svg" xmlns:xlink="http://www.w3.org/1999/xlink" id="eCiceron-logo-black" width="153.728" height="29.257" viewBox="0 0 153.728 29.257"><defs><clipPath id="clip-path"><rect id="Rectangle_81" data-name="Rectangle 81" width="153.728" height="29.257"></rect></clipPath></defs><g id="Group_166" data-name="Group 166" clip-path="url(#clip-path)"><path id="Path_577" data-name="Path 577" d="M84.23,24.724A1.231,1.231,0,0,1,85.5,25.992a1.27,1.27,0,0,1-.367.914,6.824,6.824,0,0,1-11.283-5.167A6.825,6.825,0,0,1,85.5,16.914a6.669,6.669,0,0,1,1.5,2.2,6.847,6.847,0,0,1,.5,2.625,1.214,1.214,0,0,1-.371.908,1.262,1.262,0,0,1-.908.36h-9.65a4.165,4.165,0,0,0,.608,1.224,4.3,4.3,0,0,0,.945.951,4.37,4.37,0,0,0,1.193.614,4.235,4.235,0,0,0,1.358.219,4.316,4.316,0,0,0,1.475-.243,4.047,4.047,0,0,0,1.243-.732,1.343,1.343,0,0,1,.842-.317m.548-4.252a4.071,4.071,0,0,0-.614-1.224,4.371,4.371,0,0,0-2.145-1.567,4.2,4.2,0,0,0-1.347-.219,4.246,4.246,0,0,0-1.352.219,4.483,4.483,0,0,0-1.207.616,4.225,4.225,0,0,0-.95.951,3.9,3.9,0,0,0-.6,1.224Z" transform="translate(-35.717 -7.214)"></path><path id="Path_578" data-name="Path 578" d="M117.548,24.7a1.231,1.231,0,0,1,1.267,1.268,1.286,1.286,0,0,1-.4.938,6.818,6.818,0,0,1-11.271-5.166,6.821,6.821,0,0,1,6.824-6.823,6.493,6.493,0,0,1,4.447,1.657,1.237,1.237,0,0,1,.438.962,1.257,1.257,0,0,1-.358.915,1.227,1.227,0,0,1-.909.365,1.294,1.294,0,0,1-.827-.292,4.683,4.683,0,0,0-1.3-.793,4.023,4.023,0,0,0-1.486-.268,4.172,4.172,0,0,0-1.67.336,4.358,4.358,0,0,0-1.365.913,4.27,4.27,0,0,0-.921,1.358,4.33,4.33,0,0,0,0,3.338,4.286,4.286,0,0,0,.921,1.36,4.376,4.376,0,0,0,1.365.913,4.189,4.189,0,0,0,1.67.335,4.107,4.107,0,0,0,1.486-.262,4.4,4.4,0,0,0,1.291-.785,1.366,1.366,0,0,1,.8-.268" transform="translate(-51.82 -7.214)"></path><path id="Path_579" data-name="Path 579" d="M140.636,8.815a1.5,1.5,0,1,1-.438-1.059,1.447,1.447,0,0,1,.438,1.059" transform="translate(-66.57 -3.539)"></path><path id="Path_580" data-name="Path 580" d="M138.087,27.284V16.2a1.234,1.234,0,0,1,.373-.908,1.264,1.264,0,0,1,1.79,0,1.278,1.278,0,0,1,.385.908V27.284a1.273,1.273,0,0,1-.385.907,1.262,1.262,0,0,1-1.79,0,1.23,1.23,0,0,1-.373-.907" transform="translate(-66.787 -7.214)"></path><path id="Path_581" data-name="Path 581" d="M152.534,24.7a1.231,1.231,0,0,0-1.268,1.268,1.289,1.289,0,0,0,.4.938,6.818,6.818,0,0,0,11.271-5.166,6.821,6.821,0,0,0-6.824-6.823,6.494,6.494,0,0,0-4.447,1.657,1.238,1.238,0,0,0-.438.962,1.257,1.257,0,0,0,.358.915,1.227,1.227,0,0,0,.909.365,1.294,1.294,0,0,0,.827-.292,4.683,4.683,0,0,1,1.3-.793,4.025,4.025,0,0,1,1.486-.268,4.172,4.172,0,0,1,1.67.336,4.358,4.358,0,0,1,1.365.913,4.262,4.262,0,0,1,.921,1.358,4.33,4.33,0,0,1,0,3.338,4.278,4.278,0,0,1-.921,1.36,4.376,4.376,0,0,1-1.365.913,4.189,4.189,0,0,1-1.67.335,4.109,4.109,0,0,1-1.486-.262,4.4,4.4,0,0,1-1.291-.785,1.366,1.366,0,0,0-.8-.268" transform="translate(-73.144 -7.214)"></path><path id="Path_582" data-name="Path 582" d="M190.647,24.724a1.23,1.23,0,0,1,1.269,1.268,1.269,1.269,0,0,1-.366.914,6.824,6.824,0,0,1-11.283-5.167,6.824,6.824,0,0,1,11.649-4.826,6.649,6.649,0,0,1,1.5,2.2,6.81,6.81,0,0,1,.5,2.625,1.214,1.214,0,0,1-.371.908,1.264,1.264,0,0,1-.909.36h-9.649a4.14,4.14,0,0,0,.608,1.224,4.292,4.292,0,0,0,.945.951,4.355,4.355,0,0,0,1.193.614,4.235,4.235,0,0,0,1.358.219,4.321,4.321,0,0,0,1.475-.243,4.047,4.047,0,0,0,1.243-.732,1.339,1.339,0,0,1,.84-.317m.55-4.252a4.076,4.076,0,0,0-.617-1.224,4.365,4.365,0,0,0-.95-.951,4.414,4.414,0,0,0-1.194-.616,4.268,4.268,0,0,0-2.7,0,4.483,4.483,0,0,0-1.207.616,4.215,4.215,0,0,0-.95.951,3.9,3.9,0,0,0-.6,1.224Z" transform="translate(-87.188 -7.214)"></path><path id="Path_583" data-name="Path 583" d="M216.563,16.184v.243a7.008,7.008,0,0,1,1.987-1.12,6.644,6.644,0,0,1,2.29-.39,9.849,9.849,0,0,1,1.153.073,5.092,5.092,0,0,1,1.133.262,2.4,2.4,0,0,1,.858.518,1.13,1.13,0,0,1,.342.852,1.213,1.213,0,0,1-.1.5,1.474,1.474,0,0,1-.275.408,1.217,1.217,0,0,1-.4.274,1.264,1.264,0,0,1-.5.1,1.374,1.374,0,0,1-.536-.133,4.481,4.481,0,0,0-1.67-.305,4.175,4.175,0,0,0-1.669.336A4.259,4.259,0,0,0,216.9,20.07a4.212,4.212,0,0,0-.335,1.669V27.3a1.269,1.269,0,0,1-1.267,1.267,1.233,1.233,0,0,1-.907-.372,1.216,1.216,0,0,1-.371-.895V16.184a1.22,1.22,0,0,1,.371-.9,1.238,1.238,0,0,1,.907-.371,1.268,1.268,0,0,1,1.267,1.268" transform="translate(-103.511 -7.214)"></path><path id="Path_584" data-name="Path 584" d="M252.637,21.739a6.526,6.526,0,0,1-2,4.825,6.824,6.824,0,0,1-11.649-4.825,6.824,6.824,0,0,1,11.649-4.825,6.732,6.732,0,0,1,1.493,2.205,7.015,7.015,0,0,1,.505,2.62m-6.824-4.277a4.156,4.156,0,0,0-1.681.341,4.337,4.337,0,0,0-1.354.921,4.4,4.4,0,0,0-.908,1.358,4.27,4.27,0,0,0,0,3.314,4.374,4.374,0,0,0,.908,1.358,4.308,4.308,0,0,0,1.354.92,4.274,4.274,0,0,0,3.35,0,4.334,4.334,0,0,0,1.359-.925,4.395,4.395,0,0,0,.914-1.358,4.236,4.236,0,0,0,0-3.3,4.344,4.344,0,0,0-2.273-2.285,4.126,4.126,0,0,0-1.669-.341" transform="translate(-115.59 -7.214)"></path><path id="Path_585" data-name="Path 585" d="M275.638,16.171a6.327,6.327,0,0,1,6.246-.755,6.657,6.657,0,0,1,2.028,1.36A6.365,6.365,0,0,1,285.3,18.8a6.08,6.08,0,0,1,.512,2.48v6.007a1.226,1.226,0,0,1-.371.907,1.213,1.213,0,0,1-.9.372,1.269,1.269,0,0,1-1.278-1.279V21.277a3.612,3.612,0,0,0-.306-1.475,3.894,3.894,0,0,0-2.034-2.034,3.619,3.619,0,0,0-1.475-.306,3.673,3.673,0,0,0-1.479.3,3.891,3.891,0,0,0-1.213.823,3.851,3.851,0,0,0-.823,1.218,3.693,3.693,0,0,0-.3,1.475v6.007a1.235,1.235,0,0,1-.371.907,1.278,1.278,0,0,1-1.8,0,1.228,1.228,0,0,1-.371-.907V16.2a1.237,1.237,0,0,1,.371-.9,1.273,1.273,0,0,1,2.174.876" transform="translate(-132.084 -7.214)"></path><path id="Path_586" data-name="Path 586" d="M18.3,17.237a4.5,4.5,0,0,1-5.315,1.581l.021.009a3.045,3.045,0,0,0-1.18-.241,2.958,2.958,0,0,0-.673.077A3.015,3.015,0,0,0,8.823,21.6a3.043,3.043,0,0,0,.079.688l0-.008,0,.008a2.986,2.986,0,0,0,1.771,2.1l0,0h0a10.5,10.5,0,0,0,6.353.491h0a10.524,10.524,0,0,0,7.554-6.817l0-.009,0-.01a1.114,1.114,0,0,1,.293-.465,1.054,1.054,0,0,1,.491-.264l.049-.011-.049.011a1.066,1.066,0,0,1,.249-.028,1.087,1.087,0,0,1,.669.232,1.074,1.074,0,0,1,.387.606,1.126,1.126,0,0,1,.03.258,1.012,1.012,0,0,1-.054.331v0a12.7,12.7,0,1,1-.374-9.134l0,0,0,.006a1.092,1.092,0,0,1,.066.2v0a1.1,1.1,0,0,1,.029.249,1.088,1.088,0,0,1-.839,1.056,1.064,1.064,0,0,1-.248.029,1.092,1.092,0,0,1-1-.662l0,0v0A10.527,10.527,0,0,0,4.115,14.132v0c0,.051,0,.1,0,.153a3.007,3.007,0,0,0,.08.691l0-.008,0,.007A3.015,3.015,0,0,0,7.123,17.3a3.036,3.036,0,0,0,.687-.08l.028-.007-.027.007A3,3,0,0,0,9.447,16.2a3.04,3.04,0,0,0,.684-1.758v-.01a4.5,4.5,0,0,1,7.419-3.219l-.01-.009a.946.946,0,0,1,.191.239,1.922,1.922,0,0,1,.166.392l0-.006,0,0a.6.6,0,0,1,.03.175.291.291,0,0,1-.036.146,1.141,1.141,0,0,1-.345.361,4.942,4.942,0,0,1-.755.443l.072-.033-3.042,1.2a.964.964,0,1,0,.708,1.794L17.605,14.7l.036-.018a5.7,5.7,0,0,0,1.4-.909,2.755,2.755,0,0,0,.572-.749A2.242,2.242,0,0,0,19.855,12a2.517,2.517,0,0,0-.116-.742l0,.006,0-.007a3.807,3.807,0,0,0-.341-.792,2.891,2.891,0,0,0-.584-.718l0,0L18.8,9.742a6.428,6.428,0,0,0-10.6,4.6v-.01a1.122,1.122,0,0,1-.25.642,1.059,1.059,0,0,1-.584.365l-.027.006.028-.006a1.077,1.077,0,0,1-.249.029,1.085,1.085,0,0,1-1.055-.838l0,.006,0-.006a1.129,1.129,0,0,1-.029-.251v-.058a8.6,8.6,0,0,1,16.48-3.011v0l0,0a3.018,3.018,0,0,0,2.775,1.842,3.055,3.055,0,0,0,.688-.08,3.016,3.016,0,0,0,2.328-2.933,2.981,2.981,0,0,0-.081-.688v0a2.982,2.982,0,0,0-.181-.541l0,.011a14.628,14.628,0,1,0,.43,10.519v0a2.973,2.973,0,0,0,.155-.948,3.039,3.039,0,0,0-.082-.7,3.01,3.01,0,0,0-3.621-2.247l-.047.01.047-.01a3,3,0,0,0-1.376.739,3.044,3.044,0,0,0-.8,1.275l.006-.019a8.651,8.651,0,0,1-2.317,3.537A8.6,8.6,0,0,1,11.4,22.6l0,0,.007,0a1.058,1.058,0,0,1-.625-.757h0a1.086,1.086,0,0,1,.81-1.3l-.036.008.036-.008a1.038,1.038,0,0,1,.233-.027,1.1,1.1,0,0,1,.431.09l.01,0,.011,0a6.434,6.434,0,0,0,7.594-2.257A.964.964,0,0,0,18.3,17.237" transform="translate(0 0)"></path></g></svg> 