<svg id="logo_hyland" xmlns="http://www.w3.org/2000/svg" viewBox="0 0 98 33" aria-hidden="true" fill="currentColor"><path d="m40.36 23.04-2.54.31v1.27h8.09v-1.27l-2.66-.31V.68l-.6-.35-4.68.63v1.3l2.4.54v20.24ZM0 23.35l2.53-.45V3.14L.06 2.87V1.41h7.82v1.46l-2.43.26v9.32H16.9V3.13l-2.45-.26V1.41h7.76v1.46l-2.4.26V22.9l2.57.45v1.27h-8.04v-1.28l2.57-.43v-8.7H5.45v8.67l2.57.45v1.27H0v-1.26Zm23.56 6.34a4.36 4.36 0 0 0 1.2.16 3.62 3.62 0 0 0 2.44-.95c.49-.46.9-1 1.24-1.59.47-.85.84-1.75 1.1-2.69h-.65L22.9 9.75l-1.56-.27V7.9h6.93v1.58l-2.16.3 3.52 10.03 1 3.05.86-3.05 3.04-10.07-2.33-.25v-1.6h6.45v1.59l-1.67.24a924.88 924.88 0 0 0-3.07 8.91 725.1 725.1 0 0 1-2.34 6.56c-.39 1-.78 1.9-1.16 2.69-.35.73-.77 1.43-1.25 2.08-.4.55-.87 1.03-1.41 1.44-.5.37-1.07.64-1.68.78-.43.1-.87.16-1.32.15h-.34a2.84 2.84 0 0 1-.66-.11.8.8 0 0 1-.2-.1V29.7Zm22.43-9.88c.05-.66.29-1.3.67-1.83.39-.53.86-.99 1.4-1.36a9.4 9.4 0 0 1 1.87-.95 16.05 16.05 0 0 1 4.04-.9c.64-.07 1.19-.1 1.66-.1v-1.29c.02-.65-.08-1.3-.31-1.92a2.78 2.78 0 0 0-2.17-1.73 8.46 8.46 0 0 0-2.59-.06 16.89 16.89 0 0 0-2.27.58c-.38.13-.75.29-1.1.46l-.56-1.35c.41-.32.87-.58 1.36-.78a12.94 12.94 0 0 1 4.65-.98c.76 0 1.51.08 2.25.25.68.15 1.32.44 1.88.87.56.44 1 1.01 1.27 1.67.35.85.51 1.76.48 2.68l-.03 10.28h1.91v1a6.71 6.71 0 0 1-3.42.6c-.2-.02-.4-.08-.57-.18a1.18 1.18 0 0 1-.44-.47 1.83 1.83 0 0 1-.17-.87v-.41a4.86 4.86 0 0 1-1.89 1.4c-.44.2-.91.33-1.39.42-.56.1-1.14.15-1.7.15a5.2 5.2 0 0 1-2.12-.42 4.5 4.5 0 0 1-2.71-4.76Zm2.9.06c-.02.5.07 1.01.24 1.5.14.38.38.72.7.99.32.26.7.45 1.1.55.5.12.99.18 1.49.17.3 0 .6-.04.9-.12a6.73 6.73 0 0 0 1.7-.7c.2-.12.4-.28.58-.45v-2.78c0-.91 0-1.84.02-2.77a15.95 15.95 0 0 0-2.88.3c-.5.1-.98.25-1.45.43-.44.17-.86.4-1.24.7a2.6 2.6 0 0 0-1.16 2.18Zm14.06 3.18-2.03.3v1.27h7.16v-1.27l-2.23-.31V11.33a9.4 9.4 0 0 1 2.17-1.15 6.92 6.92 0 0 1 1.96-.41c.62-.05 1.25.05 1.84.28.46.2.84.55 1.1.98.28.53.47 1.11.53 1.7.1.8.13 1.6.13 2.4v7.9l-2.26.32v1.27h7.54v-1.27l-2.41-.3v-8.43c.01-1.09-.07-2.17-.25-3.23a5.84 5.84 0 0 0-.84-2.2c-.37-.56-.9-1-1.52-1.25a5.8 5.8 0 0 0-2.34-.35c-.54.03-1.08.11-1.61.25a11.11 11.11 0 0 0-3.19 1.33c-.43.26-.84.54-1.22.86V7.9l-.67-.3-3.98 1.18v.92l2.12 1.17v12.18Zm21.74 1.93a6.2 6.2 0 0 1-2.43-.5 5.68 5.68 0 0 1-2.08-1.54 7.98 7.98 0 0 1-1.46-2.63c-.4-1.22-.58-2.5-.55-3.78a9.85 9.85 0 0 1 .67-3.68 8.36 8.36 0 0 1 7.97-5.48c.51 0 1.03.04 1.54.1.43.06.86.16 1.28.3V2.8l-3.18-.54V.96l5.38-.63.67.35v22.67h2.02v1.12c-.2.1-.41.19-.63.26a8.56 8.56 0 0 1-3.09.35 1.28 1.28 0 0 1-.53-.2 1.1 1.1 0 0 1-.4-.45 1.94 1.94 0 0 1-.15-.87v-.38a5.5 5.5 0 0 1-1.74 1.15 8.89 8.89 0 0 1-3.3.65Zm1.15-2.05a7.07 7.07 0 0 0 1.66-.2 4.1 4.1 0 0 0 2.12-1.11V10.18a2.78 2.78 0 0 0-1.02-.8c-.3-.13-.6-.23-.91-.29a6.25 6.25 0 0 0-2.43.03 4.59 4.59 0 0 0-2.35 1.34c-.38.38-.7.81-.96 1.28a7.4 7.4 0 0 0-.67 1.77 9.74 9.74 0 0 0-.27 2.3c-.04 1.08.09 2.15.37 3.19.23.8.6 1.56 1.1 2.22a4.1 4.1 0 0 0 3.37 1.7ZM94.87.36h-1.55l-.01.39h.61v1.92h.44V.75h.51V.36Zm.79 0h-.55l-.02 2.32h.4V.94l.52 1.62h.34l.51-1.62v1.74h.4V.36h-.54l-.55 1.62-.51-1.62Z"></path></svg>
