<?xml version="1.0" encoding="UTF-8" standalone="no"?> <!-- Created with Vectornator for iOS (http://vectornator.io/) --><!DOCTYPE svg PUBLIC "-//W3C//DTD SVG 1.1//EN" "http://www.w3.org/Graphics/SVG/1.1/DTD/svg11.dtd">
<svg height="100%" style="fill-rule:nonzero;clip-rule:evenodd;stroke-linecap:round;stroke-linejoin:round;" xmlns:xlink="http://www.w3.org/1999/xlink" xmlns="http://www.w3.org/2000/svg" xml:space="preserve" width="100%" xmlns:vectornator="http://vectornator.io" version="1.1" viewBox="0 0 180 35.6307">
<metadata>
<vectornator:setting key="DimensionsVisible" value="1"/>
<vectornator:setting key="PencilOnly" value="0"/>
<vectornator:setting key="SnapToPoints" value="0"/>
<vectornator:setting key="OutlineMode" value="0"/>
<vectornator:setting key="CMYKEnabledKey" value="0"/>
<vectornator:setting key="RulersVisible" value="1"/>
<vectornator:setting key="SnapToEdges" value="0"/>
<vectornator:setting key="GuidesVisible" value="1"/>
<vectornator:setting key="DisplayWhiteBackground" value="0"/>
<vectornator:setting key="doHistoryDisabled" value="0"/>
<vectornator:setting key="SnapToGuides" value="1"/>
<vectornator:setting key="TimeLapseWatermarkDisabled" value="0"/>
<vectornator:setting key="Units" value="Points"/>
<vectornator:setting key="DynamicGuides" value="0"/>
<vectornator:setting key="IsolateActiveLayer" value="0"/>
<vectornator:setting key="SnapToGrid" value="0"/>
</metadata>
<defs/>
<g id="Untitled" vectornator:layerName="Untitled">
<path d="M7.20847+24.1849C5.66847+24.0249+4.35547+23.5559+3.26847+22.7749C2.18146+21.9939+1.42347+20.9239+0.993465+19.5659C0.812465+18.9999+0.682465+18.3989+0.602465+17.7659C0.523465+17.1319+0.483465+16.4179+0.483465+15.6259C0.483465+14.8109+0.523465+14.0919+0.602465+13.4689C0.682465+12.8459+0.811465+12.2409+0.993465+11.6519C1.42346+10.2939+2.18146+9.22394+3.26847+8.44294C4.35547+7.66194+5.66847+7.20294+7.20847+7.06794L7.27646+7.06794C7.36646+7.06794+7.43446+7.10194+7.48046+7.16994C7.52646+7.23794+7.54846+7.31694+7.54846+7.40794L7.54846+10.7699C7.54846+10.9509+7.45846+11.0759+7.27746+11.1439C6.46246+11.3479+5.89646+11.8909+5.57947+12.7739C5.46647+13.1139+5.39247+13.4869+5.35847+13.8949C5.32346+14.3009+5.30647+14.8789+5.30647+15.6259C5.30647+16.3499+5.32947+16.9219+5.37447+17.3409C5.41947+17.7599+5.48747+18.1389+5.57847+18.4789C5.84947+19.2489+6.34847+19.7569+7.07247+20.0069C7.11747+20.0289+7.18047+20.0519+7.25947+20.0749C7.33847+20.0959+7.40147+20.1419+7.44647+20.2099C7.51447+20.2779+7.54847+20.3679+7.54847+20.4819L7.54847+23.8439C7.54847+23.9559+7.51447+24.0469+7.44647+24.1149C7.37847+24.1849+7.29846+24.2059+7.20847+24.1849ZM9.07647+24.1849C8.98647+24.1849+8.91247+24.1509+8.85547+24.0819C8.79847+24.0149+8.77047+23.9349+8.77047+23.8449L8.77047+20.4829C8.77047+20.3009+8.87247+20.1769+9.07647+20.1089C9.91447+19.8599+10.4695+19.3159+10.7405+18.4789C10.8535+18.1159+10.9325+17.7259+10.9785+17.3069C11.0235+16.8889+11.0465+16.3279+11.0465+15.6259C11.0465+14.9009+11.0245+14.3349+10.9785+13.9279C10.9335+13.5209+10.8535+13.1359+10.7405+12.7729C10.6045+12.3429+10.3955+11.9859+10.1125+11.7029C9.82947+11.4199+9.48447+11.2329+9.07647+11.1429C8.87247+11.0749+8.77047+10.9499+8.77047+10.7689L8.77047+7.40694C8.77047+7.29394+8.80447+7.20294+8.87247+7.13494C8.94047+7.06694+9.03047+7.04494+9.14347+7.06694C10.6605+7.20294+11.9625+7.66094+13.0495+8.44194C14.1365+9.22294+14.8945+10.2929+15.3245+11.6509C15.5285+12.2399+15.6695+12.8449+15.7485+13.4679C15.8285+14.0909+15.8675+14.8099+15.8675+15.6249C15.8675+16.4399+15.8275+17.1589+15.7485+17.7809C15.6695+18.4039+15.5275+18.9979+15.3245+19.5649C14.8945+20.9229+14.1365+21.9929+13.0495+22.7739C11.9625+23.5549+10.6605+24.0239+9.14347+24.1839L9.07647+24.1839L9.07647+24.1849Z" opacity="1" fill="#5692ce"/>
<path d="M28.4685+24.2179C27.4275+24.2179+26.4885+24.0479+25.6495+23.7079C25.5135+23.6409+25.4125+23.5619+25.3445+23.4719C25.2995+23.3349+25.2765+23.2429+25.2765+23.1999L25.2765+20.0079C25.2765+19.8949+25.3045+19.8149+25.3605+19.7699C25.4175+19.7249+25.5135+19.7029+25.6495+19.7029C25.7175+19.7029+25.8705+19.7649+26.1085+19.8899C26.3465+20.0149+26.6575+20.0779+27.0425+20.0779C28.2655+20.0779+29.0455+19.4999+29.3855+18.3459C29.6125+17.6889+29.7245+16.7829+29.7245+15.6289C29.7245+14.4969+29.6125+13.5909+29.3855+12.9119C29.0235+11.7569+28.2425+11.1799+27.0425+11.1799C26.6585+11.1799+26.3465+11.2429+26.1085+11.3669C25.8705+11.4909+25.7175+11.5539+25.6495+11.5539C25.5135+11.5539+25.4175+11.5319+25.3605+11.4859C25.3045+11.4409+25.2765+11.3729+25.2765+11.2819L25.2765+8.05494C25.2765+8.00994+25.2985+7.91894+25.3445+7.78394C25.4125+7.69294+25.5135+7.61394+25.6495+7.54594C26.4415+7.20594+27.3815+7.03694+28.4685+7.03694C31.2765+7.03694+33.1105+8.34994+33.9705+10.9759C34.3555+12.2209+34.5475+13.7719+34.5475+15.6289C34.5475+17.5079+34.3555+19.0589+33.9705+20.2819C33.1105+22.9049+31.2765+24.2179+28.4685+24.2179ZM19.6385+29.9579C19.5485+29.9579+19.4695+29.9299+19.4015+29.8719C19.3335+29.8149+19.2995+29.7299+19.2995+29.6179L19.2995+7.74594C19.2995+7.63294+19.3335+7.54794+19.4015+7.49194C19.4695+7.43494+19.5485+7.40694+19.6385+7.40694L23.7145+7.40694C23.8275+7.40694+23.9125+7.43494+23.9695+7.49194C24.0265+7.54894+24.0545+7.63294+24.0545+7.74594L24.0545+29.6179C24.0545+29.7299+24.0265+29.8149+23.9695+29.8719C23.9125+29.9299+23.8275+29.9579+23.7145+29.9579C23.7145+29.9579+19.6385+29.9579+19.6385+29.9579Z" opacity="1" fill="#5692ce"/>
<path d="M55.1965+24.1849C53.6575+24.0249+52.3435+23.5559+51.2575+22.7749C50.1715+21.9939+49.4125+20.9239+48.9825+19.5659C48.8015+18.9999+48.6715+18.3989+48.5925+17.7659C48.5125+17.1319+48.4735+16.4179+48.4735+15.6259C48.4735+14.8109+48.5135+14.0919+48.5925+13.4689C48.6715+12.8459+48.8015+12.2409+48.9825+11.6519C49.4135+10.2939+50.1705+9.22394+51.2575+8.44294C52.3445+7.66194+53.6585+7.20294+55.1965+7.06794L55.2645+7.06794C55.3555+7.06794+55.4235+7.10194+55.4685+7.16994C55.5135+7.23794+55.5365+7.31694+55.5365+7.40794L55.5365+10.7699C55.5365+10.9509+55.4465+11.0759+55.2655+11.1439C54.4505+11.3479+53.8845+11.8909+53.5675+12.7739C53.4545+13.1139+53.3815+13.4869+53.3475+13.8949C53.3135+14.3019+53.2955+14.8799+53.2955+15.6269C53.2955+16.3509+53.3185+16.9229+53.3635+17.3419C53.4095+17.7609+53.4775+18.1399+53.5675+18.4799C53.8385+19.2499+54.3385+19.7579+55.0615+20.0079C55.1065+20.0299+55.1685+20.0529+55.2495+20.0759C55.3295+20.0969+55.3915+20.1429+55.4355+20.2109C55.5035+20.2789+55.5375+20.3689+55.5375+20.4829L55.5375+23.8449C55.5375+23.9569+55.5035+24.0479+55.4355+24.1159C55.3675+24.1839+55.2875+24.2059+55.1965+24.1849ZM57.0645+24.1849C56.9745+24.1849+56.9005+24.1509+56.8445+24.0819C56.7885+24.0149+56.7595+23.9349+56.7595+23.8449L56.7595+20.4829C56.7595+20.3009+56.8615+20.1769+57.0645+20.1089C57.9035+19.8599+58.4575+19.3159+58.7295+18.4789C58.8425+18.1159+58.9225+17.7259+58.9675+17.3069C59.0135+16.8889+59.0355+16.3279+59.0355+15.6259C59.0355+14.9009+59.0135+14.3349+58.9675+13.9279C58.9235+13.5209+58.8425+13.1359+58.7295+12.7729C58.5935+12.3429+58.3855+11.9859+58.1015+11.7029C57.8185+11.4199+57.4735+11.2329+57.0645+11.1429C56.8615+11.0749+56.7595+10.9499+56.7595+10.7689L56.7595+7.40694C56.7595+7.29394+56.7935+7.20294+56.8615+7.13494C56.9295+7.06694+57.0205+7.04494+57.1325+7.06694C58.6505+7.20294+59.9515+7.66094+61.0385+8.44194C62.1255+9.22294+62.8835+10.2929+63.3135+11.6509C63.5175+12.2399+63.6595+12.8449+63.7385+13.4679C63.8185+14.0909+63.8575+14.8099+63.8575+15.6249C63.8575+16.4399+63.8185+17.1589+63.7385+17.7809C63.6595+18.4039+63.5175+18.9979+63.3135+19.5649C62.8835+20.9229+62.1255+21.9929+61.0385+22.7739C59.9515+23.5549+58.6505+24.0239+57.1325+24.1839L57.0645+24.1839L57.0645+24.1849Z" opacity="1" fill="#5692ce"/>
<path d="M74.5555+24.1849C74.4655+24.1849+74.3965+24.1559+74.3515+24.0989C74.3075+24.0419+74.2835+23.9689+74.2835+23.8779L74.2835+20.9579C74.2835+20.7299+74.3965+20.6179+74.6235+20.6179C75.2805+20.5259+75.7785+20.3409+76.1175+20.0569C76.4575+19.7739+76.6265+19.4169+76.6265+18.9869C76.6265+18.6929+76.5585+18.4499+76.4225+18.2569C76.2865+18.0649+76.0445+17.9009+75.6935+17.7649C75.3415+17.6289+74.8265+17.5269+74.1475+17.4589L72.3475+17.2889C70.5815+17.1079+69.2285+16.5929+68.2895+15.7439C67.3505+14.8949+66.8795+13.7349+66.8795+12.2629C66.8795+10.7689+67.3895+9.56294+68.4075+8.64594C69.4265+7.72894+70.8525+7.20294+72.6865+7.06694L72.7545+7.06694C72.8455+7.06694+72.9195+7.09494+72.9755+7.15194C73.0325+7.20894+73.0595+7.28194+73.0595+7.37294L73.0595+10.2599C73.0595+10.4409+72.9575+10.5539+72.7535+10.5999C72.3015+10.6899+71.9565+10.8549+71.7185+11.0919C71.4805+11.3299+71.3615+11.6299+71.3615+11.9919C71.3615+12.4219+71.5265+12.7439+71.8545+12.9599C72.1825+13.1749+72.7995+13.3279+73.7055+13.4179L75.5055+13.6219C77.4525+13.8259+78.8735+14.3469+79.7685+15.1849C80.6635+16.0219+81.1095+17.1549+81.1095+18.5809C81.1095+19.6439+80.8555+20.5839+80.3455+21.3999C79.8355+22.2139+79.0945+22.8599+78.1195+23.3359C77.1465+23.8119+75.9795+24.0939+74.6215+24.1859L74.5555+24.1859L74.5555+24.1849ZM78.2235+11.8219C77.1365+11.1429+75.9255+10.7239+74.5895+10.5649C74.3855+10.5649+74.2835+10.4519+74.2835+10.2259L74.2835+7.37294C74.2835+7.25994+74.3175+7.17494+74.3855+7.11794C74.4525+7.06194+74.5325+7.04494+74.6235+7.06694C75.7785+7.13494+76.8535+7.33894+77.8495+7.67794C78.8465+8.01794+79.6955+8.44794+80.3965+8.96894C80.4645+9.01394+80.5045+9.08194+80.5155+9.17294C80.5275+9.26294+80.4985+9.35394+80.4305+9.44394L78.6985+11.7189C78.5625+11.9009+78.4045+11.9349+78.2235+11.8219ZM72.6875+24.1849C71.3285+24.0929+70.0955+23.8329+68.9855+23.4039C67.8765+22.9719+66.9365+22.4289+66.1665+21.7729C66.0985+21.7059+66.0635+21.6269+66.0635+21.5359C66.0635+21.4449+66.0975+21.3659+66.1665+21.2989L68.1695+18.8529C68.3055+18.7169+68.4645+18.7169+68.6455+18.8529C70.0275+19.7579+71.3965+20.3239+72.7545+20.5509C72.9585+20.5509+73.0605+20.6639+73.0605+20.8909L73.0605+23.8789C73.0605+23.9919+73.0265+24.0779+72.9585+24.1339C72.8905+24.1909+72.8005+24.2059+72.6875+24.1849Z" opacity="1" fill="#bed020"/>
<path d="M88.5815+23.8449C88.3775+23.8449+88.2415+23.7319+88.1735+23.5049L82.9095+7.74594L82.8755+7.64394C82.8755+7.57594+82.8985+7.51894+82.9435+7.47394C82.9885+7.42894+83.0565+7.40594+83.1475+7.40594L87.2915+7.40594C87.4265+7.40594+87.5295+7.42794+87.5975+7.47394C87.6655+7.51994+87.7225+7.60994+87.7665+7.74494L92.0465+23.4349L92.0795+23.5719C92.0795+23.6619+92.0525+23.7299+91.9955+23.7749C91.9385+23.8199+91.8655+23.8429+91.7735+23.8429L88.5815+23.8429L88.5815+23.8449ZM98.6335+23.8449C98.4305+23.8449+98.2935+23.7319+98.2265+23.5049L95.3055+13.9619L95.2375+13.9619L92.9625+21.1619C92.9415+21.2299+92.9125+21.2869+92.8785+21.3319C92.8455+21.3769+92.8045+21.3999+92.7595+21.3999C92.7145+21.3999+92.6465+21.3199+92.5565+21.1619L91.1975+15.8299C91.1295+15.6939+91.1195+15.5349+91.1635+15.3539L93.5075+7.74594C93.5745+7.51994+93.7235+7.40694+93.9485+7.40694L96.5975+7.40694C96.8465+7.40694+97.0045+7.51994+97.0725+7.74594L101.861+23.4359L101.895+23.6059C101.895+23.7639+101.804+23.8439+101.624+23.8439L98.6335+23.8439L98.6335+23.8449ZM100.672+15.7619C100.65+15.6029+100.65+15.4559+100.672+15.3199L102.71+7.74594C102.733+7.60994+102.783+7.51994+102.862+7.47494C102.942+7.42994+103.05+7.40694+103.184+7.40694L107.293+7.40694C107.407+7.40694+107.492+7.43494+107.549+7.49194C107.606+7.54894+107.612+7.63294+107.565+7.74594L102.879+21.6379C102.856+21.7049+102.828+21.7609+102.794+21.8069C102.76+21.8519+102.721+21.8739+102.674+21.8739C102.584+21.8739+102.505+21.7959+102.438+21.6379L100.672+15.7619Z" opacity="1" fill="#bed020"/>
<path d="M117.415+24.2179C115.514+24.2179+113.929+23.8109+112.661+22.9949C111.393+22.1809+110.52+21.0259+110.046+19.5309C109.888+18.9869+109.763+18.4099+109.672+17.7989C109.581+17.1879+109.536+16.4629+109.536+15.6249C109.536+14.7189+109.576+13.9609+109.655+13.3499C109.735+12.7389+109.865+12.1839+110.046+11.6859C110.477+10.3269+111.224+9.24594+112.286+8.44194C113.351+7.63794+114.641+7.17994+116.159+7.06694L116.226+7.06694C116.317+7.06694+116.385+7.09494+116.43+7.15194C116.475+7.20894+116.497+7.28194+116.497+7.37294L116.497+10.2939C116.497+10.4749+116.395+10.5879+116.191+10.6329C115.74+10.7459+115.353+10.9559+115.037+11.2609C114.721+11.5659+114.494+11.9459+114.357+12.3989C114.267+12.6929+114.199+13.0729+114.154+13.5369C114.109+14.0009+114.086+14.6979+114.086+15.6259C114.086+16.3499+114.109+16.9109+114.154+17.3069C114.199+17.7039+114.267+18.0379+114.357+18.3089C114.585+19.0109+115.008+19.5479+115.63+19.9209C116.253+20.2949+117.006+20.4829+117.889+20.4829C119.316+20.4829+120.629+19.9729+121.828+18.9549C122.01+18.8189+122.168+18.8189+122.304+18.9549L124.308+21.0269C124.376+21.0939+124.41+21.1729+124.41+21.2629C124.41+21.3539+124.377+21.4329+124.308+21.5009C123.47+22.3599+122.463+23.0289+121.285+23.5049C120.11+23.9809+118.819+24.2179+117.415+24.2179ZM115.751+16.9509C115.661+16.9509+115.581+16.9169+115.514+16.8489C115.446+16.7809+115.411+16.7019+115.411+16.6119L115.411+14.2339C115.411+14.1209+115.445+14.0359+115.514+13.9799C115.581+13.9229+115.661+13.8949+115.751+13.8949L119.929+13.8949C120.064+13.8949+120.132+13.8269+120.132+13.6909C120.132+13.2379+120.076+12.8079+119.962+12.3999C119.646+11.4259+119.001+10.8379+118.026+10.6339C117.823+10.5659+117.721+10.4419+117.721+10.2599L117.721+7.37294C117.721+7.25994+117.754+7.17494+117.823+7.11794C117.89+7.06194+117.981+7.04494+118.094+7.06694C119.633+7.17994+120.93+7.63294+121.983+8.42494C123.036+9.21694+123.79+10.2929+124.241+11.6519C124.401+12.1949+124.524+12.8399+124.615+13.5879C124.706+14.3349+124.751+15.3419+124.751+16.6109C124.751+16.7229+124.717+16.8089+124.649+16.8649C124.581+16.9219+124.491+16.9499+124.378+16.9499L115.751+16.9499L115.751+16.9509Z" opacity="1" fill="#bed020"/>
<path d="M138.166+23.8449C138.076+23.8449+137.996+23.8109+137.929+23.7429C137.861+23.6749+137.827+23.5949+137.827+23.5049L137.827+1.08994C137.827+0.976942+137.86+0.891942+137.929+0.834942C137.996+0.777942+138.076+0.749942+138.166+0.749942L142.241+0.749942C142.354+0.749942+142.44+0.777942+142.497+0.834942C142.554+0.891942+142.581+0.976942+142.581+1.08994L142.581+23.5049C142.581+23.5949+142.554+23.6749+142.497+23.7429C142.44+23.8099+142.354+23.8449+142.241+23.8449C142.241+23.8449+138.166+23.8449+138.166+23.8449ZM133.411+24.2179C131.963+24.2179+130.792+23.8839+129.896+23.2159C129.001+22.5479+128.35+21.5699+127.943+20.2779C127.739+19.6669+127.592+18.9869+127.502+18.2399C127.411+17.4929+127.366+16.6199+127.366+15.6249C127.366+14.6509+127.411+13.7909+127.502+13.0439C127.593+12.2969+127.739+11.6059+127.943+10.9719C128.35+9.68094+129.002+8.70194+129.896+8.03394C130.792+7.36694+131.962+7.03294+133.411+7.03294C134.498+7.03294+135.438+7.20194+136.23+7.54194C136.389+7.60994+136.491+7.68894+136.536+7.77994C136.581+7.91594+136.604+8.00594+136.604+8.05094L136.604+11.2779C136.604+11.3679+136.575+11.4369+136.519+11.4819C136.463+11.5269+136.366+11.5499+136.23+11.5499C136.162+11.5499+136.01+11.4879+135.772+11.3629C135.534+11.2379+135.223+11.1759+134.837+11.1759C133.637+11.1759+132.857+11.7539+132.494+12.9079C132.381+13.2469+132.301+13.6269+132.256+14.0459C132.211+14.4639+132.188+14.9909+132.188+15.6249C132.188+16.2589+132.211+16.7909+132.256+17.2209C132.301+17.6509+132.381+18.0249+132.494+18.3419C132.834+19.4959+133.614+20.0739+134.837+20.0739C135.223+20.0739+135.533+20.0109+135.772+19.8859C136.011+19.7609+136.162+19.6989+136.23+19.6989C136.366+19.6989+136.463+19.7209+136.519+19.7659C136.575+19.8109+136.604+19.8909+136.604+20.0039L136.604+23.1959C136.604+23.2399+136.581+23.3319+136.536+23.4679C136.514+23.5119+136.468+23.5519+136.399+23.5849C136.332+23.6189+136.288+23.6479+136.264+23.6709C135.54+24.0359+134.589+24.2179+133.411+24.2179Z" opacity="1" fill="#bed020"/>
<path d="M153.924+24.2179C152.022+24.2179+150.438+23.8109+149.169+22.9949C147.901+22.1809+147.029+21.0259+146.554+19.5309C146.396+18.9869+146.272+18.4099+146.18+17.7989C146.09+17.1879+146.045+16.4629+146.045+15.6249C146.045+14.7189+146.084+13.9609+146.164+13.3499C146.243+12.7389+146.373+12.1839+146.554+11.6859C146.985+10.3269+147.733+9.24594+148.795+8.44194C149.859+7.63794+151.15+7.17994+152.667+7.06694L152.734+7.06694C152.826+7.06694+152.894+7.09494+152.938+7.15194C152.984+7.20894+153.006+7.28194+153.006+7.37294L153.006+10.2939C153.006+10.4749+152.903+10.5879+152.7+10.6329C152.247+10.7459+151.862+10.9559+151.546+11.2609C151.23+11.5659+151.002+11.9459+150.866+12.3989C150.776+12.6929+150.708+13.0729+150.662+13.5369C150.618+14.0009+150.595+14.6979+150.595+15.6259C150.595+16.3499+150.618+16.9109+150.662+17.3069C150.708+17.7039+150.776+18.0379+150.866+18.3089C151.093+19.0109+151.516+19.5479+152.139+19.9209C152.762+20.2949+153.514+20.4829+154.397+20.4829C155.825+20.4829+157.137+19.9729+158.337+18.9549C158.518+18.8189+158.676+18.8189+158.813+18.9549L160.817+21.0269C160.884+21.0939+160.919+21.1729+160.919+21.2629C160.919+21.3539+160.885+21.4329+160.817+21.5009C159.979+22.3599+158.971+23.0289+157.794+23.5049C156.619+23.9809+155.329+24.2179+153.924+24.2179ZM152.26+16.9509C152.17+16.9509+152.09+16.9169+152.022+16.8489C151.954+16.7809+151.92+16.7019+151.92+16.6119L151.92+14.2339C151.92+14.1209+151.953+14.0359+152.022+13.9799C152.09+13.9229+152.17+13.8949+152.26+13.8949L156.438+13.8949C156.573+13.8949+156.641+13.8269+156.641+13.6909C156.641+13.2379+156.584+12.8079+156.471+12.3999C156.155+11.4259+155.51+10.8379+154.535+10.6339C154.331+10.5659+154.229+10.4419+154.229+10.2599L154.229+7.37294C154.229+7.25994+154.263+7.17494+154.331+7.11794C154.398+7.06194+154.49+7.04494+154.603+7.06694C156.142+7.17994+157.439+7.63294+158.492+8.42494C159.545+9.21694+160.298+10.2929+160.75+11.6519C160.909+12.1949+161.033+12.8399+161.123+13.5879C161.215+14.3349+161.26+15.3419+161.26+16.6109C161.26+16.7229+161.226+16.8089+161.158+16.8649C161.09+16.9219+161+16.9499+160.886+16.9499L152.26+16.9499L152.26+16.9509Z" opacity="1" fill="#bed020"/>
<path d="M174.947+23.8449C174.856+23.8449+174.777+23.8109+174.71+23.7429C174.642+23.6749+174.607+23.5949+174.607+23.5049L174.607+14.0289C174.607+13.1459+174.403+12.4609+173.996+11.9739C173.589+11.4869+173.034+11.2439+172.332+11.2439C171.97+11.2439+171.671+11.2949+171.433+11.3969C171.195+11.4989+171.042+11.5499+170.974+11.5499C170.861+11.5499+170.782+11.5219+170.736+11.4659C170.692+11.4089+170.669+11.3009+170.669+11.1429L170.669+8.11994C170.669+7.91594+170.76+7.76894+170.94+7.67894C171.869+7.24894+172.888+7.03394+173.997+7.03394C175.695+7.03394+177.016+7.57694+177.954+8.66394C178.893+9.75094+179.363+11.2559+179.363+13.1809L179.363+23.5059C179.363+23.5959+179.336+23.6759+179.279+23.7439C179.222+23.8109+179.136+23.8459+179.023+23.8459L174.947+23.8459L174.947+23.8449ZM165.03+23.8449C164.94+23.8449+164.86+23.8109+164.792+23.7429C164.725+23.6749+164.69+23.5949+164.69+23.5049L164.69+7.74594C164.69+7.63294+164.724+7.54794+164.792+7.49194C164.86+7.43494+164.94+7.40694+165.03+7.40694L169.106+7.40694C169.219+7.40694+169.304+7.43494+169.36+7.49194C169.417+7.54894+169.445+7.63294+169.445+7.74594L169.445+23.5049C169.445+23.5949+169.417+23.6749+169.36+23.7429C169.304+23.8099+169.219+23.8449+169.106+23.8449C169.106+23.8449+165.03+23.8449+165.03+23.8449Z" opacity="1" fill="#bed020"/>
<g opacity="1">
<path d="M37.0605+10.8709C36.9705+10.8709+36.8905+10.8369+36.8225+10.7689C36.7545+10.7009+36.7205+10.6219+36.7205+10.5309L36.7205+7.74594C36.7205+7.63294+36.7545+7.54794+36.8225+7.49194C36.8905+7.43594+36.9705+7.40694+37.0605+7.40694L38.2155+7.40694C38.3515+7.40694+38.4195+7.33894+38.4195+7.20294L38.4195+2.78794C38.4195+2.67494+38.4535+2.58994+38.5215+2.53394C38.5895+2.47694+38.6685+2.44894+38.7595+2.44894L42.8015+2.44894C42.9155+2.44894+43.0005+2.47694+43.0565+2.53394C43.1135+2.58994+43.1415+2.67494+43.1415+2.78794L43.1415+7.20294C43.1415+7.33894+43.2095+7.40694+43.3455+7.40694L45.6555+7.40694C45.7685+7.40694+45.8545+7.43494+45.9105+7.49194C45.9665+7.54894+45.9945+7.63294+45.9945+7.74594L45.9945+10.5309C45.9945+10.6209+45.9665+10.7009+45.9105+10.7689C45.8535+10.8369+45.7685+10.8709+45.6555+10.8709L37.0605+10.8709ZM43.9885+24.0149C42.6305+24.0149+41.5495+23.8219+40.7455+23.4369C39.9415+23.0519+39.3525+22.4349+38.9795+21.5849C38.6055+20.7359+38.4185+19.5989+38.4185+18.1729L38.4185+12.3309C38.4185+12.2179+38.4525+12.1329+38.5205+12.0769C38.5885+12.0199+38.6675+11.9919+38.7585+11.9919L42.8005+11.9919C42.9145+11.9919+42.9995+12.0199+43.0555+12.0769C43.1125+12.1329+43.1405+12.2179+43.1405+12.3309L43.1405+18.0029C43.1405+18.7499+43.2715+19.2659+43.5315+19.5479C43.7915+19.8309+44.2615+19.9729+44.9405+19.9729L45.6535+19.9729C45.7665+19.9729+45.8525+20.0009+45.9085+20.0579C45.9645+20.1149+45.9925+20.1989+45.9925+20.3129L45.9925+23.6749C45.9925+23.7649+45.9645+23.8449+45.9085+23.9129C45.8515+23.9799+45.7665+24.0149+45.6535+24.0149C45.6535+24.0149+43.9885+24.0149+43.9885+24.0149Z" opacity="1" fill="#5692ce"/>
<path d="M38.4345+9.32794L43.1385+9.32794L43.1385+13.5539L38.4345+13.5539L38.4345+9.32794Z" opacity="1" fill="#5692ce"/>
</g>
<path d="M64.0975+32.9509C63.8225+33.1849+63.5585+33.3489+63.3045+33.4459C63.0505+33.5419+62.7775+33.5909+62.4855+33.5909C62.0055+33.5909+61.6355+33.4729+61.3775+33.2379C61.1185+33.0039+60.9895+32.7029+60.9895+32.3379C60.9895+32.1229+61.0385+31.9279+61.1355+31.7499C61.2335+31.5729+61.3605+31.4309+61.5195+31.3219C61.6775+31.2169+61.8545+31.1349+62.0525+31.0799C62.1985+31.0409+62.4185+31.0049+62.7125+30.9689C63.3115+30.8989+63.7535+30.8129+64.0365+30.7129C64.0385+30.6109+64.0405+30.5469+64.0405+30.5199C64.0405+30.2179+63.9705+30.0039+63.8295+29.8809C63.6405+29.7129+63.3595+29.6299+62.9845+29.6299C62.6365+29.6299+62.3785+29.6919+62.2125+29.8129C62.0465+29.9359+61.9225+30.1529+61.8435+30.4629L61.1175+30.3629C61.1835+30.0519+61.2925+29.7999+61.4435+29.6099C61.5935+29.4199+61.8135+29.2719+62.0985+29.1699C62.3845+29.0659+62.7155+29.0159+63.0925+29.0159C63.4665+29.0159+63.7695+29.0589+64.0035+29.1479C64.2365+29.2349+64.4085+29.3459+64.5185+29.4789C64.6275+29.6129+64.7055+29.7809+64.7495+29.9849C64.7735+30.1099+64.7865+30.3389+64.7865+30.6689L64.7865+31.6589C64.7865+32.3469+64.8015+32.7839+64.8335+32.9669C64.8645+33.1499+64.9275+33.3249+65.0205+33.4929L64.2465+33.4929C64.1695+33.3369+64.1195+33.1579+64.0975+32.9509ZM64.0365+31.2939C63.7665+31.4029+63.3635+31.4969+62.8245+31.5739C62.5185+31.6179+62.3035+31.6669+62.1775+31.7219C62.0505+31.7759+61.9525+31.8569+61.8845+31.9629C61.8155+32.0679+61.7815+32.1859+61.7815+32.3149C61.7815+32.5129+61.8565+32.6779+62.0055+32.8099C62.1555+32.9419+62.3755+33.0079+62.6635+33.0079C62.9495+33.0079+63.2035+32.9449+63.4265+32.8199C63.6485+32.6949+63.8125+32.5239+63.9165+32.3059C63.9975+32.1379+64.0365+31.8909+64.0365+31.5639C64.0365+31.5639+64.0365+31.2939+64.0365+31.2939Z" opacity="1" fill="#5692ce"/>
<path d="M68.8055+33.4919L68.8055+32.8479C68.4635+33.3429+68.0005+33.5899+67.4155+33.5899C67.1575+33.5899+66.9155+33.5399+66.6915+33.4419C66.4685+33.3429+66.3015+33.2179+66.1925+33.0699C66.0855+32.9199+66.0085+32.7359+65.9645+32.5179C65.9345+32.3719+65.9195+32.1419+65.9195+31.8259L65.9195+29.1149L66.6615+29.1149L66.6615+31.5429C66.6615+31.9299+66.6765+32.1899+66.7055+32.3249C66.7535+32.5199+66.8515+32.6739+67.0025+32.7839C67.1535+32.8959+67.3415+32.9509+67.5635+32.9509C67.7855+32.9509+67.9955+32.8939+68.1905+32.7799C68.3855+32.6669+68.5235+32.5109+68.6055+32.3139C68.6855+32.1189+68.7265+31.8339+68.7265+31.4599L68.7265+29.1149L69.4685+29.1149L69.4685+33.4919C69.4685+33.4919+68.8055+33.4919+68.8055+33.4919Z" opacity="1" fill="#5692ce"/>
<path d="M72.2515+32.8269L72.3585+33.4809C72.1505+33.5259+71.9635+33.5469+71.7985+33.5469C71.5285+33.5469+71.3195+33.5059+71.1715+33.4199C71.0235+33.3339+70.9185+33.2229+70.8585+33.0839C70.7985+32.9449+70.7685+32.6529+70.7685+32.2079L70.7685+29.6909L70.2245+29.6909L70.2245+29.1149L70.7685+29.1149L70.7685+28.0289L71.5055+27.5859L71.5055+29.1149L72.2515+29.1149L72.2515+29.6909L71.5055+29.6909L71.5055+32.2499C71.5055+32.4629+71.5195+32.5999+71.5445+32.6589C71.5705+32.7189+71.6135+32.7669+71.6725+32.8039C71.7325+32.8389+71.8165+32.8579+71.9255+32.8579C72.0075+32.8569+72.1165+32.8469+72.2515+32.8269Z" opacity="1" fill="#5692ce"/>
<path d="M72.7005+31.3019C72.7005+30.4909+72.9255+29.8909+73.3765+29.5009C73.7525+29.1769+74.2115+29.0149+74.7535+29.0149C75.3555+29.0149+75.8475+29.2119+76.2285+29.6059C76.6105+30.0019+76.8015+30.5449+76.8015+31.2419C76.8015+31.8049+76.7175+32.2479+76.5485+32.5699C76.3785+32.8919+76.1325+33.1439+75.8095+33.3219C75.4865+33.5019+75.1345+33.5909+74.7525+33.5909C74.1395+33.5909+73.6445+33.3939+73.2665+32.9999C72.8895+32.6069+72.7005+32.0409+72.7005+31.3019ZM73.4635+31.3019C73.4635+31.8629+73.5855+32.2819+73.8305+32.5619C74.0755+32.8399+74.3825+32.9799+74.7545+32.9799C75.1225+32.9799+75.4285+32.8399+75.6735+32.5599C75.9185+32.2789+76.0405+31.8529+76.0405+31.2779C76.0405+30.7359+75.9165+30.3259+75.6715+30.0479C75.4245+29.7689+75.1195+29.6299+74.7545+29.6299C74.3825+29.6299+74.0755+29.7689+73.8305+30.0459C73.5855+30.3239+73.4635+30.7419+73.4635+31.3019Z" opacity="1" fill="#5692ce"/>
<path d="M77.6725+33.4919L77.6725+29.1149L78.3365+29.1149L78.3365+29.7279C78.4745+29.5129+78.6565+29.3409+78.8845+29.2099C79.1125+29.0789+79.3725+29.0149+79.6635+29.0149C79.9875+29.0149+80.2535+29.0809+80.4615+29.2159C80.6695+29.3509+80.8155+29.5399+80.8995+29.7809C81.2455+29.2689+81.6975+29.0139+82.2525+29.0139C82.6865+29.0139+83.0205+29.1329+83.2535+29.3729C83.4875+29.6139+83.6045+29.9839+83.6045+30.4839L83.6045+33.4899L82.8665+33.4899L82.8665+30.7319C82.8665+30.4349+82.8425+30.2209+82.7935+30.0899C82.7465+29.9599+82.6585+29.8549+82.5325+29.7749C82.4055+29.6949+82.2575+29.6559+82.0865+29.6559C81.7795+29.6559+81.5235+29.7589+81.3205+29.9629C81.1165+30.1679+81.0145+30.4949+81.0145+30.9459L81.0145+33.4899L80.2735+33.4899L80.2735+30.6449C80.2735+30.3159+80.2115+30.0679+80.0915+29.9029C79.9705+29.7379+79.7725+29.6559+79.4975+29.6559C79.2895+29.6559+79.0965+29.7109+78.9185+29.8199C78.7415+29.9299+78.6125+30.0909+78.5325+30.3019C78.4525+30.5139+78.4135+30.8199+78.4135+31.2179L78.4135+33.4889L77.6725+33.4889L77.6725+33.4919Z" opacity="1" fill="#5692ce"/>
<path d="M87.5605+32.9509C87.2855+33.1849+87.0205+33.3489+86.7665+33.4459C86.5135+33.5419+86.2395+33.5909+85.9485+33.5909C85.4685+33.5909+85.0985+33.4729+84.8405+33.2379C84.5815+33.0039+84.4525+32.7029+84.4525+32.3379C84.4525+32.1229+84.5005+31.9279+84.5985+31.7499C84.6965+31.5729+84.8235+31.4309+84.9815+31.3219C85.1395+31.2169+85.3165+31.1349+85.5155+31.0799C85.6615+31.0409+85.8815+31.0049+86.1755+30.9689C86.7745+30.8989+87.2155+30.8129+87.4995+30.7129C87.5015+30.6109+87.5035+30.5469+87.5035+30.5199C87.5035+30.2179+87.4335+30.0039+87.2925+29.8809C87.1035+29.7129+86.8205+29.6299+86.4475+29.6299C86.0995+29.6299+85.8415+29.6919+85.6755+29.8129C85.5085+29.9359+85.3865+30.1529+85.3065+30.4629L84.5805+30.3629C84.6465+30.0519+84.7555+29.7999+84.9055+29.6099C85.0565+29.4199+85.2755+29.2719+85.5615+29.1699C85.8465+29.0659+86.1785+29.0159+86.5555+29.0159C86.9295+29.0159+87.2325+29.0589+87.4665+29.1479C87.6995+29.2349+87.8715+29.3459+87.9815+29.4789C88.0915+29.6129+88.1685+29.7809+88.2115+29.9849C88.2365+30.1099+88.2495+30.3389+88.2495+30.6689L88.2495+31.6589C88.2495+32.3469+88.2655+32.7839+88.2975+32.9669C88.3285+33.1499+88.3915+33.3249+88.4845+33.4929L87.7095+33.4929C87.6325+33.3369+87.5835+33.1579+87.5605+32.9509ZM87.4995+31.2939C87.2295+31.4029+86.8265+31.4969+86.2875+31.5739C85.9815+31.6179+85.7665+31.6669+85.6405+31.7219C85.5135+31.7759+85.4165+31.8569+85.3475+31.9629C85.2785+32.0679+85.2445+32.1859+85.2445+32.3149C85.2445+32.5129+85.3195+32.6779+85.4685+32.8099C85.6195+32.9419+85.8385+33.0079+86.1265+33.0079C86.4115+33.0079+86.6665+32.9449+86.8895+32.8199C87.1115+32.6949+87.2755+32.5239+87.3795+32.3059C87.4595+32.1379+87.5005+31.8909+87.5005+31.5639L87.5005+31.2939L87.4995+31.2939Z" opacity="1" fill="#5692ce"/>
<path d="M91.0185+32.8269L91.1255+33.4809C90.9175+33.5259+90.7295+33.5469+90.5645+33.5469C90.2955+33.5469+90.0865+33.5059+89.9385+33.4199C89.7905+33.3339+89.6865+33.2229+89.6255+33.0839C89.5645+32.9449+89.5345+32.6529+89.5345+32.2079L89.5345+29.6909L88.9905+29.6909L88.9905+29.1149L89.5345+29.1149L89.5345+28.0289L90.2715+27.5859L90.2715+29.1149L91.0175+29.1149L91.0175+29.6909L90.2715+29.6909L90.2715+32.2499C90.2715+32.4629+90.2855+32.5999+90.3115+32.6589C90.3375+32.7179+90.3805+32.7669+90.4385+32.8039C90.4985+32.8389+90.5825+32.8579+90.6935+32.8579C90.7765+32.8569+90.8845+32.8469+91.0185+32.8269Z" opacity="1" fill="#5692ce"/>
<path d="M91.7495+28.3019L91.7495+27.4479L92.4915+27.4479L92.4915+28.3019L91.7495+28.3019ZM91.7495+33.4919L91.7495+29.1149L92.4915+29.1149L92.4915+33.4919L91.7495+33.4919Z" opacity="1" fill="#5692ce"/>
<path d="M96.4775+31.8869L97.2065+31.9819C97.1275+32.4849+96.9235+32.8779+96.5955+33.1639C96.2665+33.4479+95.8635+33.5909+95.3855+33.5909C94.7865+33.5909+94.3045+33.3949+93.9405+33.0039C93.5765+32.6109+93.3945+32.0509+93.3945+31.3189C93.3945+30.8459+93.4725+30.4329+93.6285+30.0789C93.7855+29.7249+94.0235+29.4579+94.3435+29.2809C94.6635+29.1029+95.0125+29.0149+95.3885+29.0149C95.8655+29.0149+96.2535+29.1339+96.5565+29.3739C96.8585+29.6149+97.0525+29.9559+97.1365+30.3989L96.4155+30.5099C96.3475+30.2159+96.2255+29.9939+96.0505+29.8459C95.8765+29.6979+95.6655+29.6229+95.4175+29.6229C95.0445+29.6229+94.7405+29.7569+94.5075+30.0249C94.2735+30.2929+94.1565+30.7159+94.1565+31.2959C94.1565+31.8839+94.2685+32.3119+94.4935+32.5769C94.7205+32.8449+95.0145+32.9769+95.3775+32.9769C95.6685+32.9769+95.9105+32.8869+96.1065+32.7089C96.3015+32.5339+96.4245+32.2589+96.4775+31.8869Z" opacity="1" fill="#5692ce"/>
<path d="M103.026+33.4919L103.026+32.9389C102.749+33.3729+102.34+33.5899+101.801+33.5899C101.453+33.5899+101.132+33.4929+100.839+33.3019C100.547+33.1089+100.32+32.8399+100.158+32.4949C99.9985+32.1509+99.9185+31.7539+99.9185+31.3069C99.9185+30.8689+99.9905+30.4739+100.137+30.1169C100.282+29.7619+100.5+29.4889+100.792+29.2999C101.084+29.1099+101.408+29.0159+101.768+29.0159C102.033+29.0159+102.268+29.0709+102.475+29.1829C102.68+29.2929+102.848+29.4389+102.977+29.6179L102.977+27.4489L103.714+27.4489L103.714+33.4929L103.026+33.4929L103.026+33.4919ZM100.68+31.3069C100.68+31.8669+100.799+32.2859+101.035+32.5639C101.271+32.8419+101.55+32.9799+101.872+32.9799C102.196+32.9799+102.472+32.8479+102.698+32.5819C102.926+32.3169+103.039+31.9129+103.039+31.3689C103.039+30.7689+102.923+30.3299+102.692+30.0499C102.461+29.7699+102.176+29.6299+101.839+29.6299C101.509+29.6299+101.234+29.7639+101.012+30.0329C100.79+30.3019+100.68+30.7259+100.68+31.3069Z" opacity="1" fill="#5692ce"/>
<path d="M104.606+31.3019C104.606+30.4909+104.831+29.8909+105.282+29.5009C105.659+29.1769+106.118+29.0149+106.657+29.0149C107.261+29.0149+107.753+29.2119+108.134+29.6059C108.517+30.0019+108.708+30.5449+108.708+31.2419C108.708+31.8049+108.623+32.2479+108.454+32.5699C108.284+32.8919+108.039+33.1439+107.716+33.3219C107.393+33.5019+107.04+33.5909+106.657+33.5909C106.046+33.5909+105.55+33.3939+105.173+32.9999C104.795+32.6069+104.606+32.0409+104.606+31.3019ZM105.368+31.3019C105.368+31.8629+105.491+32.2819+105.735+32.5619C105.979+32.8399+106.287+32.9799+106.657+32.9799C107.026+32.9799+107.333+32.8399+107.577+32.5599C107.822+32.2789+107.944+31.8529+107.944+31.2779C107.944+30.7359+107.821+30.3259+107.576+30.0479C107.329+29.7689+107.024+29.6299+106.657+29.6299C106.287+29.6299+105.979+29.7689+105.735+30.0459C105.491+30.3239+105.368+30.7419+105.368+31.3019Z" opacity="1" fill="#5692ce"/>
<path d="M112.433+31.8869L113.162+31.9819C113.082+32.4849+112.878+32.8779+112.55+33.1639C112.223+33.4479+111.819+33.5909+111.34+33.5909C110.741+33.5909+110.26+33.3949+109.895+33.0039C109.532+32.6109+109.349+32.0509+109.349+31.3189C109.349+30.8459+109.428+30.4329+109.584+30.0789C109.74+29.7249+109.98+29.4579+110.3+29.2809C110.619+29.1029+110.969+29.0149+111.345+29.0149C111.82+29.0149+112.209+29.1339+112.512+29.3739C112.813+29.6149+113.007+29.9559+113.092+30.3989L112.371+30.5099C112.302+30.2159+112.18+29.9939+112.006+29.8459C111.831+29.6979+111.62+29.6229+111.373+29.6229C111+29.6229+110.695+29.7569+110.462+30.0249C110.229+30.2929+110.111+30.7159+110.111+31.2959C110.111+31.8839+110.224+32.3119+110.45+32.5769C110.676+32.8449+110.969+32.9769+111.332+32.9769C111.623+32.9769+111.867+32.8869+112.062+32.7089C112.257+32.5339+112.38+32.2589+112.433+31.8869Z" opacity="1" fill="#5692ce"/>
<path d="M116.667+33.4919L116.667+32.8479C116.327+33.3429+115.862+33.5899+115.278+33.5899C115.019+33.5899+114.778+33.5399+114.554+33.4419C114.33+33.3439+114.162+33.2179+114.055+33.0699C113.947+32.9199+113.869+32.7359+113.826+32.5179C113.796+32.3719+113.78+32.1419+113.78+31.8259L113.78+29.1149L114.522+29.1149L114.522+31.5429C114.522+31.9299+114.537+32.1899+114.567+32.3249C114.615+32.5199+114.713+32.6739+114.864+32.7839C115.015+32.8959+115.203+32.9509+115.426+32.9509C115.648+32.9509+115.858+32.8939+116.052+32.7799C116.247+32.6669+116.385+32.5109+116.467+32.3139C116.547+32.1189+116.588+31.8339+116.588+31.4599L116.588+29.1149L117.33+29.1149L117.33+33.4919C117.33+33.4919+116.667+33.4919+116.667+33.4919Z" opacity="1" fill="#5692ce"/>
<path d="M118.493+33.4919L118.493+29.1149L119.157+29.1149L119.157+29.7279C119.294+29.5129+119.476+29.3409+119.705+29.2099C119.934+29.0789+120.192+29.0149+120.483+29.0149C120.808+29.0149+121.075+29.0809+121.28+29.2159C121.489+29.3509+121.635+29.5399+121.72+29.7809C122.067+29.2689+122.516+29.0139+123.072+29.0139C123.507+29.0139+123.841+29.1329+124.073+29.3729C124.307+29.6139+124.425+29.9839+124.425+30.4839L124.425+33.4899L123.687+33.4899L123.687+30.7319C123.687+30.4349+123.663+30.2209+123.615+30.0899C123.567+29.9599+123.48+29.8549+123.353+29.7749C123.227+29.6949+123.079+29.6559+122.908+29.6559C122.6+29.6559+122.345+29.7589+122.142+29.9629C121.939+30.1679+121.836+30.4949+121.836+30.9459L121.836+33.4899L121.094+33.4899L121.094+30.6449C121.094+30.3159+121.034+30.0679+120.913+29.9029C120.792+29.7379+120.594+29.6559+120.319+29.6559C120.11+29.6559+119.917+29.7109+119.74+29.8199C119.562+29.9299+119.434+30.0909+119.354+30.3019C119.274+30.5139+119.235+30.8199+119.235+31.2179L119.235+33.4889L118.493+33.4889L118.493+33.4919Z" opacity="1" fill="#5692ce"/>
<path d="M128.522+32.0809L129.288+32.1759C129.168+32.6229+128.944+32.9719+128.617+33.2199C128.29+33.4659+127.872+33.5899+127.363+33.5899C126.723+33.5899+126.216+33.3929+125.841+32.9969C125.466+32.6039+125.278+32.0509+125.278+31.3389C125.278+30.6029+125.467+30.0299+125.846+29.6239C126.225+29.2179+126.717+29.0149+127.322+29.0149C127.907+29.0149+128.385+29.2139+128.757+29.6129C129.129+30.0119+129.314+30.5719+129.314+31.2949C129.314+31.3379+129.312+31.4039+129.31+31.4919L126.044+31.4919C126.071+31.9719+126.208+32.3419+126.452+32.5969C126.698+32.8529+127.002+32.9799+127.368+32.9799C127.639+32.9799+127.872+32.9099+128.065+32.7649C128.256+32.6219+128.409+32.3939+128.522+32.0809ZM126.087+30.8819L128.53+30.8819C128.497+30.5129+128.403+30.2369+128.25+30.0529C128.014+29.7679+127.706+29.6239+127.33+29.6239C126.989+29.6239+126.704+29.7379+126.472+29.9659C126.239+30.1949+126.11+30.4989+126.087+30.8819Z" opacity="1" fill="#5692ce"/>
<path d="M130.219+33.4919L130.219+29.1149L130.888+29.1149L130.888+29.7359C131.209+29.2559+131.673+29.0149+132.28+29.0149C132.545+29.0149+132.788+29.0619+133.009+29.1569C133.23+29.2519+133.396+29.3769+133.505+29.5309C133.615+29.6829+133.693+29.8669+133.736+30.0789C133.763+30.2159+133.777+30.4569+133.777+30.7999L133.777+33.4919L133.036+33.4919L133.036+30.8289C133.036+30.5259+133.007+30.3009+132.95+30.1499C132.891+30.0019+132.79+29.8799+132.641+29.7919C132.495+29.7029+132.323+29.6579+132.124+29.6579C131.808+29.6579+131.535+29.7589+131.306+29.9589C131.077+30.1599+130.961+30.5399+130.961+31.1009L130.961+33.4929L130.219+33.4929L130.219+33.4919Z" opacity="1" fill="#5692ce"/>
<path d="M136.534+32.8269L136.643+33.4809C136.434+33.5259+136.247+33.5469+136.081+33.5469C135.812+33.5469+135.602+33.5059+135.454+33.4199C135.306+33.3339+135.201+33.2229+135.141+33.0839C135.081+32.9449+135.051+32.6529+135.051+32.2079L135.051+29.6909L134.506+29.6909L134.506+29.1149L135.051+29.1149L135.051+28.0289L135.787+27.5859L135.787+29.1149L136.533+29.1149L136.533+29.6909L135.787+29.6909L135.787+32.2499C135.787+32.4629+135.801+32.5999+135.828+32.6589C135.853+32.7189+135.896+32.7669+135.955+32.8039C136.014+32.8389+136.099+32.8579+136.209+32.8579C136.292+32.8569+136.401+32.8469+136.534+32.8269Z" opacity="1" fill="#5692ce"/>
<path d="M139.606+35.1689L139.606+29.1139L140.282+29.1139L140.282+29.6819C140.441+29.4579+140.622+29.2909+140.822+29.1809C141.022+29.0689+141.266+29.0139+141.551+29.0139C141.924+29.0139+142.254+29.1099+142.541+29.3019C142.826+29.4939+143.043+29.7659+143.187+30.1149C143.333+30.4669+143.406+30.8499+143.406+31.2669C143.406+31.7149+143.326+32.1189+143.164+32.4769C143.004+32.8359+142.77+33.1109+142.464+33.3019C142.158+33.4929+141.835+33.5879+141.498+33.5879C141.25+33.5879+141.027+33.5349+140.832+33.4309C140.635+33.3269+140.474+33.1949+140.348+33.0359L140.348+35.1669L139.606+35.1669L139.606+35.1689ZM140.278+31.3269C140.278+31.8899+140.391+32.3059+140.62+32.5749C140.849+32.8439+141.125+32.9789+141.448+32.9789C141.778+32.9789+142.061+32.8389+142.296+32.5609C142.53+32.2819+142.649+31.8499+142.649+31.2639C142.649+30.7059+142.535+30.2889+142.304+30.0119C142.075+29.7339+141.802+29.5949+141.482+29.5949C141.166+29.5949+140.886+29.7419+140.644+30.0369C140.399+30.3339+140.278+30.7629+140.278+31.3269Z" opacity="1" fill="#5692ce"/>
<path d="M144.293+33.4919L144.293+29.1149L144.96+29.1149L144.96+29.7769C145.132+29.4659+145.288+29.2609+145.433+29.1639C145.578+29.0639+145.736+29.0159+145.909+29.0159C146.16+29.0159+146.414+29.0959+146.672+29.2539L146.417+29.9419C146.236+29.8359+146.055+29.7819+145.873+29.7819C145.711+29.7819+145.564+29.8299+145.435+29.9279C145.306+30.0249+145.214+30.1609+145.16+30.3329C145.077+30.5969+145.036+30.8859+145.036+31.1979L145.036+33.4909L144.293+33.4909L144.293+33.4919Z" opacity="1" fill="#5692ce"/>
<path d="M146.836+31.3019C146.836+30.4909+147.062+29.8909+147.513+29.5009C147.89+29.1769+148.349+29.0149+148.89+29.0149C149.492+29.0149+149.984+29.2119+150.366+29.6059C150.748+30.0019+150.939+30.5449+150.939+31.2419C150.939+31.8049+150.854+32.2479+150.685+32.5699C150.516+32.8919+150.269+33.1439+149.947+33.3219C149.625+33.5019+149.271+33.5909+148.89+33.5909C148.277+33.5909+147.782+33.3939+147.404+32.9999C147.025+32.6069+146.836+32.0409+146.836+31.3019ZM147.598+31.3019C147.598+31.8629+147.721+32.2819+147.965+32.5619C148.209+32.8399+148.518+32.9799+148.889+32.9799C149.256+32.9799+149.563+32.8399+149.808+32.5599C150.052+32.2789+150.174+31.8529+150.174+31.2779C150.174+30.7359+150.051+30.3259+149.805+30.0479C149.559+29.7689+149.253+29.6299+148.889+29.6299C148.518+29.6299+148.209+29.7689+147.965+30.0459C147.721+30.3239+147.598+30.7419+147.598+31.3019Z" opacity="1" fill="#5692ce"/>
<path d="M154.664+31.8869L155.393+31.9819C155.313+32.4849+155.11+32.8779+154.781+33.1639C154.454+33.4479+154.05+33.5909+153.572+33.5909C152.972+33.5909+152.491+33.3949+152.128+33.0039C151.763+32.6109+151.581+32.0509+151.581+31.3189C151.581+30.8459+151.659+30.4329+151.815+30.0789C151.971+29.7249+152.211+29.4579+152.531+29.2809C152.851+29.1029+153.2+29.0149+153.576+29.0149C154.052+29.0149+154.44+29.1339+154.743+29.3739C155.044+29.6149+155.238+29.9559+155.323+30.3989L154.602+30.5099C154.534+30.2159+154.411+29.9939+154.237+29.8459C154.063+29.6979+153.852+29.6229+153.604+29.6229C153.23+29.6229+152.926+29.7569+152.694+30.0249C152.46+30.2929+152.343+30.7159+152.343+31.2959C152.343+31.8839+152.455+32.3119+152.681+32.5769C152.907+32.8449+153.2+32.9769+153.563+32.9769C153.854+32.9769+154.098+32.8869+154.293+32.7089C154.489+32.5339+154.612+32.2589+154.664+31.8869Z" opacity="1" fill="#5692ce"/>
<path d="M159.025+32.0809L159.792+32.1759C159.671+32.6229+159.446+32.9719+159.12+33.2199C158.792+33.4659+158.376+33.5899+157.867+33.5899C157.226+33.5899+156.72+33.3929+156.344+32.9969C155.97+32.6039+155.781+32.0509+155.781+31.3389C155.781+30.6029+155.971+30.0299+156.351+29.6239C156.73+29.2179+157.221+29.0149+157.826+29.0149C158.412+29.0149+158.89+29.2139+159.262+29.6129C159.632+30.0109+159.818+30.5719+159.818+31.2949C159.818+31.3379+159.817+31.4039+159.814+31.4919L156.549+31.4919C156.576+31.9719+156.713+32.3419+156.957+32.5969C157.201+32.8519+157.508+32.9799+157.872+32.9799C158.144+32.9799+158.377+32.9099+158.568+32.7649C158.76+32.6219+158.913+32.3939+159.025+32.0809ZM156.589+30.8819L159.033+30.8819C159.001+30.5129+158.907+30.2369+158.753+30.0529C158.517+29.7679+158.211+29.6239+157.835+29.6239C157.493+29.6239+157.207+29.7379+156.975+29.9659C156.742+30.1949+156.614+30.4989+156.589+30.8819Z" opacity="1" fill="#5692ce"/>
<path d="M160.426+32.1839L161.16+32.0689C161.201+32.3629+161.315+32.5899+161.504+32.7459C161.693+32.9019+161.955+32.9799+162.293+32.9799C162.635+32.9799+162.887+32.9119+163.052+32.7729C163.217+32.6329+163.299+32.4699+163.299+32.2829C163.299+32.1169+163.227+31.9839+163.081+31.8869C162.978+31.8219+162.726+31.7379+162.322+31.6359C161.777+31.4989+161.401+31.3799+161.191+31.2799C160.98+31.1789+160.82+31.0409+160.712+30.8629C160.603+30.6859+160.548+30.4899+160.548+30.2749C160.548+30.0809+160.593+29.8999+160.683+29.7339C160.773+29.5679+160.894+29.4289+161.047+29.3199C161.163+29.2339+161.32+29.1629+161.52+29.1029C161.718+29.0439+161.932+29.0149+162.161+29.0149C162.504+29.0149+162.807+29.0639+163.066+29.1629C163.326+29.2609+163.517+29.3949+163.64+29.5649C163.765+29.7329+163.849+29.9599+163.896+30.2429L163.17+30.3409C163.138+30.1159+163.042+29.9409+162.884+29.8139C162.726+29.6869+162.503+29.6249+162.214+29.6249C161.872+29.6249+161.63+29.6819+161.485+29.7939C161.339+29.9069+161.266+30.0389+161.266+30.1899C161.266+30.2859+161.295+30.3739+161.356+30.4499C161.417+30.5299+161.511+30.5959+161.641+30.6479C161.715+30.6749+161.933+30.7389+162.295+30.8369C162.82+30.9779+163.187+31.0919+163.395+31.1819C163.602+31.2709+163.764+31.4009+163.883+31.5709C164+31.7419+164.06+31.9539+164.06+32.2069C164.06+32.4539+163.987+32.6859+163.844+32.9049C163.699+33.1239+163.491+33.2929+163.219+33.4119C162.948+33.5319+162.639+33.5919+162.295+33.5919C161.727+33.5919+161.293+33.4739+160.994+33.2379C160.699+32.9989+160.508+32.6489+160.426+32.1839Z" opacity="1" fill="#5692ce"/>
<path d="M164.647+32.1839L165.381+32.0689C165.422+32.3629+165.537+32.5899+165.725+32.7459C165.914+32.9019+166.176+32.9799+166.514+32.9799C166.856+32.9799+167.108+32.9119+167.273+32.7729C167.438+32.6329+167.52+32.4699+167.52+32.2829C167.52+32.1169+167.448+31.9839+167.302+31.8869C167.199+31.8219+166.948+31.7379+166.543+31.6359C165.998+31.4989+165.622+31.3799+165.412+31.2799C165.201+31.1789+165.042+31.0409+164.933+30.8629C164.824+30.6859+164.769+30.4899+164.769+30.2749C164.769+30.0809+164.814+29.8999+164.905+29.7339C164.994+29.5679+165.115+29.4289+165.269+29.3199C165.384+29.2339+165.542+29.1629+165.741+29.1029C165.94+29.0439+166.154+29.0149+166.383+29.0149C166.726+29.0149+167.028+29.0639+167.287+29.1629C167.547+29.2609+167.738+29.3949+167.861+29.5649C167.986+29.7329+168.071+29.9599+168.118+30.2429L167.392+30.3409C167.359+30.1159+167.263+29.9409+167.105+29.8139C166.947+29.6869+166.724+29.6249+166.435+29.6249C166.094+29.6249+165.851+29.6819+165.706+29.7939C165.56+29.9069+165.487+30.0389+165.487+30.1899C165.487+30.2859+165.517+30.3739+165.577+30.4499C165.638+30.5299+165.733+30.5959+165.862+30.6479C165.936+30.6749+166.155+30.7389+166.517+30.8369C167.042+30.9779+167.409+31.0919+167.616+31.1819C167.823+31.2709+167.985+31.4009+168.104+31.5709C168.222+31.7419+168.282+31.9539+168.282+32.2069C168.282+32.4539+168.209+32.6859+168.065+32.9049C167.92+33.1239+167.713+33.2929+167.44+33.4119C167.169+33.5319+166.861+33.5919+166.517+33.5919C165.948+33.5919+165.514+33.4739+165.215+33.2379C164.921+32.9989+164.73+32.6489+164.647+32.1839Z" opacity="1" fill="#5692ce"/>
<path d="M169.169+28.3019L169.169+27.4479L169.912+27.4479L169.912+28.3019L169.169+28.3019ZM169.169+33.4919L169.169+29.1149L169.912+29.1149L169.912+33.4919L169.169+33.4919Z" opacity="1" fill="#5692ce"/>
<path d="M171.042+33.4919L171.042+29.1149L171.71+29.1149L171.71+29.7359C172.03+29.2559+172.495+29.0149+173.103+29.0149C173.367+29.0149+173.609+29.0619+173.831+29.1569C174.053+29.2519+174.218+29.3769+174.327+29.5309C174.437+29.6829+174.515+29.8669+174.558+30.0789C174.585+30.2159+174.599+30.4569+174.599+30.7999L174.599+33.4919L173.857+33.4919L173.857+30.8289C173.857+30.5259+173.828+30.3009+173.771+30.1499C173.712+30.0019+173.611+29.8799+173.462+29.7919C173.316+29.7029+173.144+29.6579+172.945+29.6579C172.63+29.6579+172.357+29.7589+172.128+29.9589C171.899+30.1599+171.782+30.5399+171.782+31.1009L171.782+33.4929L171.042+33.4929L171.042+33.4919Z" opacity="1" fill="#5692ce"/>
<path d="M175.6+33.8539L176.321+33.9599C176.352+34.1839+176.435+34.3459+176.573+34.4479C176.757+34.5849+177.009+34.6529+177.327+34.6529C177.671+34.6529+177.936+34.5849+178.123+34.4479C178.31+34.3089+178.436+34.1179+178.503+33.8699C178.54+33.7189+178.559+33.4009+178.556+32.9169C178.232+33.2999+177.827+33.4909+177.345+33.4909C176.742+33.4909+176.277+33.2729+175.947+32.8399C175.617+32.4049+175.453+31.8849+175.453+31.2769C175.453+30.8589+175.528+30.4729+175.68+30.1199C175.831+29.7669+176.049+29.4949+176.336+29.3029C176.624+29.1109+176.961+29.0149+177.349+29.0149C177.867+29.0149+178.292+29.2239+178.627+29.6409L178.627+29.1149L179.311+29.1149L179.311+32.8979C179.311+33.5799+179.243+34.0619+179.104+34.3459C178.965+34.6309+178.745+34.8549+178.444+35.0209C178.143+35.1849+177.772+35.2679+177.333+35.2679C176.812+35.2679+176.39+35.1499+176.067+34.9149C175.745+34.6809+175.589+34.3269+175.6+33.8539ZM176.214+31.2239C176.214+31.7979+176.329+32.2169+176.557+32.4809C176.786+32.7459+177.071+32.8769+177.414+32.8769C177.755+32.8769+178.04+32.7459+178.272+32.4829C178.502+32.2209+178.618+31.8099+178.618+31.2489C178.618+30.7129+178.499+30.3089+178.261+30.0369C178.023+29.7649+177.738+29.6299+177.402+29.6299C177.073+29.6299+176.793+29.7639+176.562+30.0309C176.329+30.2979+176.214+30.6969+176.214+31.2239Z" opacity="1" fill="#5692ce"/>
</g>
</svg>
