<svg width="213" height="46" xmlns="http://www.w3.org/2000/svg" xmlns:xlink="http://www.w3.org/1999/xlink" xml:space="preserve" overflow="hidden"><defs><clipPath id="clip0"><rect x="0" y="0" width="213" height="46"/></clipPath><clipPath id="clip1"><rect x="0" y="0" width="213" height="46"/></clipPath></defs><g clip-path="url(#clip0)"><g clip-path="url(#clip1)"><path d="M296.96 194.42C296.165 187.11 289.596 181.829 282.287 182.624 276.073 183.299 271.167 188.206 270.491 194.42 263.169 195.084 257.772 201.558 258.436 208.881 259.068 215.839 264.97 221.124 271.955 220.988L283.72 220.988C287.825 220.988 291.152 217.66 291.152 213.555 291.152 209.451 287.825 206.123 283.72 206.123 281.325 206.115 279.39 204.167 279.398 201.773 279.406 199.378 281.354 197.443 283.749 197.451 284.888 197.455 285.981 197.907 286.789 198.71 287.382 199.326 288.362 199.346 288.978 198.753 289.594 198.16 289.613 197.18 289.021 196.564 289.009 196.551 288.996 196.539 288.984 196.527 286.091 193.614 281.386 193.599 278.473 196.491 275.561 199.384 275.545 204.089 278.438 207.002 279.836 208.409 281.739 209.2 283.724 209.196 286.118 209.196 288.06 211.138 288.06 213.533 288.06 215.927 286.118 217.869 283.724 217.869L271.955 217.869C266.311 217.869 261.735 213.293 261.735 207.648 261.735 202.004 266.311 197.428 271.955 197.428 272.808 197.428 273.5 196.737 273.5 195.884 273.5 190.239 278.075 185.664 283.72 185.664 289.364 185.664 293.94 190.239 293.94 195.884 293.942 196.737 294.635 197.428 295.488 197.428 301.133 197.428 305.708 202.004 305.708 207.648 305.708 213.293 301.133 217.869 295.488 217.869 294.633 217.869 293.94 218.562 293.94 219.417 293.94 220.272 294.633 220.965 295.488 220.965 302.84 220.991 308.822 215.052 308.848 207.7 308.873 200.879 303.738 195.143 296.956 194.416Z" fill="#417DA5" fill-rule="nonzero" fill-opacity="1" transform="matrix(1 0 0 1.00782 -258.643 -184)"/><path d="M326.951 211.053C326.19 210.748 325.506 210.52 324.517 210.182 322.733 209.611 320.987 208.964 320.987 207.481 320.987 205.998 322.128 205.241 323.874 205.241 325.59 205.271 327.226 205.966 328.438 207.181L329.96 204.936C328.819 203.723 326.997 202.582 323.806 202.582 320.614 202.582 317.72 204.408 317.72 207.747 317.72 210.33 319.428 211.509 320.569 212.08 321.402 212.536 321.82 212.612 323.037 213.03 324.254 213.449 327.107 214.054 327.107 216.043 327.107 218.032 325.319 218.625 323.65 218.625 321.593 218.541 319.664 217.605 318.325 216.043L316.579 218.169C318.1 220.143 320.569 221.398 323.608 221.398 325.696 221.398 327.366 220.828 328.621 219.801 329.84 218.794 330.527 217.281 330.481 215.701 330.499 214.432 329.974 213.215 329.039 212.357 328.427 211.801 327.72 211.36 326.951 211.053Z" fill="#417DA5" fill-rule="nonzero" fill-opacity="1" transform="matrix(1 0 0 1.00782 -258.643 -184)"/><path d="M340.161 202.582C337.788 202.603 335.459 203.232 333.398 204.408L334.501 206.838C336.146 205.857 338.018 205.32 339.933 205.279 342.553 205.279 344.417 206.648 344.417 209.383L344.417 210.105 339.59 210.296C335.407 210.482 332.527 212.27 332.527 215.803 332.527 219.337 335.414 221.387 338.754 221.387 342.093 221.387 343.771 219.466 344.493 218.705L344.531 220.988 348.061 220.988 348.061 210.482C348.061 207.405 347.342 205.887 346.125 204.632 344.908 203.377 343.162 202.582 340.161 202.582ZM344.455 216.184C343.771 217.207 342.211 218.804 339.857 218.804 337.502 218.804 336.133 217.397 336.133 215.689 336.133 213.981 337.312 212.726 340.237 212.574L344.455 212.308Z" fill="#417DA5" fill-rule="nonzero" fill-opacity="1" transform="matrix(1 0 0 1.00782 -258.643 -184)"/><path d="M369.224 202.582C364.211 202.582 360.069 206.23 360.069 211.927 360.069 217.625 363.755 221.387 369.11 221.387 374.465 221.387 376.82 218.724 377.048 218.538L375.527 216.446C373.818 217.771 371.725 218.505 369.563 218.538 366.219 218.538 363.941 216.374 363.751 212.802L377.657 212.802C377.722 212.272 377.76 211.739 377.771 211.205 377.771 206.154 374.237 202.582 369.224 202.582ZM363.793 210.372C363.907 208.204 365.5 205.203 369.118 205.203 372.735 205.203 374.283 208.356 374.321 210.372Z" fill="#417DA5" fill-rule="nonzero" fill-opacity="1" transform="matrix(1 0 0 1.00782 -258.643 -184)"/><path d="M389.448 211.053C388.687 210.748 388.002 210.52 387.017 210.182 385.23 209.611 383.484 208.964 383.484 207.481 383.484 205.998 384.625 205.241 386.371 205.241 388.086 205.272 389.722 205.967 390.935 207.181L392.456 204.936C391.315 203.723 389.493 202.582 386.302 202.582 383.111 202.582 380.216 204.408 380.216 207.747 380.216 210.33 381.924 211.509 383.065 212.08 383.902 212.536 384.32 212.612 385.534 213.03 386.747 213.449 389.6 214.054 389.6 216.031 389.6 218.009 387.816 218.614 386.142 218.614 384.085 218.53 382.156 217.595 380.817 216.031L379.068 218.158C380.589 220.132 383.058 221.387 386.097 221.387 388.185 221.387 389.858 220.816 391.11 219.789 392.331 218.783 393.019 217.27 392.974 215.689 392.989 214.419 392.464 213.203 391.528 212.346 390.916 211.794 390.212 211.356 389.448 211.053Z" fill="#417DA5" fill-rule="nonzero" fill-opacity="1" transform="matrix(1 0 0 1.00782 -258.643 -184)"/><path d="M405.016 202.582C402.486 202.522 400.09 203.716 398.614 205.773L398.538 205.773 398.538 202.924 395.043 202.924 395.043 227.834 398.69 227.834 398.69 218.12 398.728 218.158C400.018 220.17 402.11 221.387 404.959 221.387 410.314 221.387 413.733 217.283 413.733 211.927 413.733 206.572 410.333 202.582 405.016 202.582ZM404.255 218.272C400.645 218.272 398.519 215.499 398.519 211.889 398.519 208.28 400.645 205.545 404.255 205.545 407.865 205.545 409.991 208.28 409.991 211.889 409.991 215.499 407.865 218.272 404.255 218.272Z" fill="#417DA5" fill-rule="nonzero" fill-opacity="1" transform="matrix(1 0 0 1.00782 -258.643 -184)"/><path d="M169.868 20.3529 173.515 20.3529 173.515 38.3971 169.868 38.3971Z" fill="#417DA5" fill-rule="nonzero" fill-opacity="1" transform="scale(1 1.00782)"/><path d="M444.451 202.582C442.158 202.52 440.024 203.754 438.932 205.773L438.818 205.773 438.856 202.924 435.208 202.924 435.208 220.988 438.856 220.988 438.856 211.889C438.856 208.432 440.111 205.583 443.493 205.583 446.718 205.583 447.251 207.865 447.251 210.908L447.251 220.988 450.898 220.988 450.898 210.296C450.91 205.963 449.582 202.582 444.451 202.582Z" fill="#417DA5" fill-rule="nonzero" fill-opacity="1" transform="matrix(1 0 0 1.00782 -258.643 -184)"/><path d="M468.033 202.924 468.071 205.773 467.957 205.773C466.896 204.103 464.804 202.582 461.651 202.582 457.018 202.582 452.952 205.925 452.952 211.661 452.952 217.397 457.018 220.74 461.651 220.74 464.694 220.74 466.744 219.337 467.957 217.511L468.033 217.511 468.033 218.222C468.033 220.695 467.387 222.406 466.668 223.277 465.949 224.148 464.424 225.251 461.723 225.251 459.023 225.251 456.216 223.806 455.257 222.969L453.549 225.514C455.885 227.233 458.703 228.176 461.601 228.21 466.086 228.21 468.326 226.389 469.657 224.753 470.989 223.117 471.631 220.949 471.631 216.967L471.631 202.924ZM462.412 217.758C458.726 217.758 456.676 215.062 456.676 211.642 456.676 208.223 458.726 205.488 462.412 205.488 466.097 205.488 468.147 208.223 468.147 211.642 468.147 215.062 466.135 217.777 462.412 217.777Z" fill="#417DA5" fill-rule="nonzero" fill-opacity="1" transform="matrix(1 0 0 1.00782 -258.643 -184)"/><path d="M352.344 196.314C351.583 197.265 351.127 198.782 351.127 201.14L351.127 220.988 354.736 220.988 354.736 205.887 359.027 205.887 359.027 202.962 354.736 202.962 354.736 200.95C354.736 198.896 355.117 197.112 357.509 197.112 358.022 197.12 358.532 197.186 359.031 197.306L359.031 194.553C358.255 194.402 357.466 194.331 356.676 194.34 355.006 194.301 353.41 195.028 352.344 196.314Z" fill="#417DA5" fill-rule="nonzero" fill-opacity="1" transform="matrix(1 0 0 1.00782 -258.643 -184)"/><path d="M419.481 205.697 419.367 205.697 419.405 202.924 415.757 202.924 415.757 220.988 419.405 220.988 419.405 211.965C419.405 209.303 420.165 207.899 420.504 207.401 421.204 206.465 422.299 205.904 423.467 205.88 424.144 205.865 424.821 205.994 425.445 206.26L425.445 202.757C424.946 202.631 424.437 202.57 423.923 202.574 421.987 202.582 420.356 203.647 419.481 205.697Z" fill="#417DA5" fill-rule="nonzero" fill-opacity="1" transform="matrix(1 0 0 1.00782 -258.643 -184)"/><path d="M174.044 14.1417C174.044 15.4525 172.981 16.5151 171.67 16.5151 170.36 16.5151 169.297 15.4525 169.297 14.1417 169.297 12.8309 170.36 11.7683 171.67 11.7683 172.981 11.7683 174.044 12.8309 174.044 14.1417Z" fill="#417DA5" fill-rule="nonzero" fill-opacity="1" transform="scale(1 1.00782)"/></g></g></svg>